<svg
  width="1720"
  height="150"
  viewBox="0 0 1720 150"
  fill="none"
  xmlns="http://www.w3.org/2000/svg"
>
  <path
    d="M-493.207 -81.7627C-341.335 -139.612 -312.012 -30.2339 -156.05 -30.2339C-0.0871277 -30.2339 25.145 -81.7627 181.108 -81.7627C337.07 -81.7627 362.302 -30.2339 518.265 -30.2339C674.227 -30.2339 700.676 -81.7627 856.639 -81.7627C1012.6 -81.7627 1051.22 -30.2339 1207.19 -30.2339C1363.15 -30.2339 1388.38 -81.7627 1544.34 -81.7627C1700.3 -81.7627 1732.96 -10.1107 1881.5 -30.2339C2030.04 -50.3572 2067.98 -137.233 2218.66 -81.7627C2357.83 -30.5277 2357.83 66.9339 2218.66 118.169C2067.98 173.64 2037.46 66.6402 1881.5 66.6402C1725.54 66.6402 1700.3 118.169 1544.34 118.169C1388.38 118.169 1363.15 66.6402 1207.19 66.6402C1051.22 66.6402 1012.6 118.169 856.639 118.169C700.676 118.169 674.227 66.6402 518.265 66.6402C362.302 66.6402 337.07 118.169 181.108 118.169C25.145 118.169 -0.0871277 66.6402 -156.05 66.6402C-312.012 66.6402 -341.335 176.018 -493.207 118.169C-630.311 65.9456 -630.311 -29.5394 -493.207 -81.7627Z"
    fill="url(#brandGradient)"
    fill-opacity="0.05"></path>
  <path
    d="M-92.9801 -66.8143C47.8431 -124.663 75.0323 -15.2855 219.648 -15.2855C364.264 -15.2855 387.661 -66.8143 532.277 -66.8143C676.893 -66.8143 700.289 -15.2855 844.905 -15.2855C989.521 -15.2855 1014.05 -66.8143 1158.66 -66.8143C1303.28 -66.8143 1339.09 -15.2855 1483.7 -15.2855C1628.32 -15.2855 1651.72 -66.8143 1796.33 -66.8143C1940.95 -66.8143 1971.23 4.83776 2108.96 -15.2855C2246.7 -35.4087 2281.88 -122.285 2421.59 -66.8143C2550.63 -15.5793 2550.63 81.8824 2421.59 133.117C2281.88 188.588 2253.58 81.5886 2108.96 81.5886C1964.35 81.5886 1940.95 133.117 1796.33 133.117C1651.72 133.117 1628.32 81.5886 1483.7 81.5886C1339.09 81.5886 1303.28 133.117 1158.66 133.117C1014.05 133.117 989.521 81.5886 844.905 81.5886C700.289 81.5886 676.893 133.117 532.277 133.117C387.661 133.117 364.264 81.5886 219.648 81.5886C75.0323 81.5886 47.8431 190.966 -92.9801 133.117C-220.109 80.8941 -220.109 -14.591 -92.9801 -66.8143Z"
    fill="url(#brandGradient)"
    fill-opacity="0.05"></path>
  <path
    d="M-493.207 18.2373C-341.335 -39.6115 -312.012 69.7661 -156.05 69.7661C-0.0871277 69.7661 25.145 18.2373 181.108 18.2373C337.07 18.2373 362.302 69.7661 518.265 69.7661C674.227 69.7661 700.676 18.2373 856.639 18.2373C1012.6 18.2373 1051.22 69.7661 1207.19 69.7661C1363.15 69.7661 1388.38 18.2373 1544.34 18.2373C1700.3 18.2373 1732.96 89.8893 1881.5 69.7661C2030.04 49.6428 2067.98 -37.2334 2218.66 18.2373C2357.83 69.4723 2357.83 166.934 2218.66 218.169C2067.98 273.64 2037.46 166.64 1881.5 166.64C1725.54 166.64 1700.3 218.169 1544.34 218.169C1388.38 218.169 1363.15 166.64 1207.19 166.64C1051.22 166.64 1012.6 218.169 856.639 218.169C700.676 218.169 674.227 166.64 518.265 166.64C362.302 166.64 337.07 218.169 181.108 218.169C25.145 218.169 -0.0871277 166.64 -156.05 166.64C-312.012 166.64 -341.335 276.018 -493.207 218.169C-630.311 165.946 -630.311 70.4606 -493.207 18.2373Z"
    fill="url(#brandGradient)"
    fill-opacity="0.05"></path>
  <path
    d="M-92.9801 33.1857C47.8431 -24.6631 75.0323 84.7145 219.648 84.7145C364.264 84.7145 387.661 33.1857 532.277 33.1857C676.893 33.1857 700.289 84.7145 844.905 84.7145C989.521 84.7145 1014.05 33.1857 1158.66 33.1857C1303.28 33.1857 1339.09 84.7145 1483.7 84.7145C1628.32 84.7145 1651.72 33.1857 1796.33 33.1857C1940.95 33.1857 1971.23 104.838 2108.96 84.7145C2246.7 64.5913 2281.88 -22.2849 2421.59 33.1857C2550.63 84.4207 2550.63 181.882 2421.59 233.117C2281.88 288.588 2253.58 181.589 2108.96 181.589C1964.35 181.589 1940.95 233.117 1796.33 233.117C1651.72 233.117 1628.32 181.589 1483.7 181.589C1339.09 181.589 1303.28 233.117 1158.66 233.117C1014.05 233.117 989.521 181.589 844.905 181.589C700.289 181.589 676.893 233.117 532.277 233.117C387.661 233.117 364.264 181.589 219.648 181.589C75.0323 181.589 47.8431 290.966 -92.9801 233.117C-220.109 180.894 -220.109 85.4091 -92.9801 33.1857Z"
    fill="url(#brandGradient)"
    fill-opacity="0.05"></path>
  <defs>
    <linearGradient
      id="brandGradientLight"
      x1="-596.035"
      y1="75"
      x2="2518.37"
      y2="74.9996"
      gradientUnits="userSpaceOnUse"
    >
      <stop  style="stop-color: #3563CB;"></stop>
      <stop offset="100%" style="stop-color: #A242BF;"></stop>
    </linearGradient>
    <linearGradient
      id="brandGradientDark"
      x1="-596.035"
      y1="75"
      x2="2518.37"
      y2="74.9996"
      gradientUnits="userSpaceOnUse"
    >
      <stop offset="0%" style="stop-color: #FF67A7;"></stop>
      <stop offset="100%" style="stop-color: #FC8E50;"></stop>
    </linearGradient>
  </defs>
  <style>
    @media (prefers-color-scheme: light) {
      path {
        fill: url(#brandGradientLight);
      }
    }
    @media (prefers-color-scheme: dark) {
      path {
        fill: url(#brandGradientDark);
      }
    }
  </style>
</svg>
