<svg width="60" height="84" viewBox="0 0 60 84" fill="none" xmlns="http://www.w3.org/2000/svg">
  <g clip-path="url(#a)">
    <path
      id="icon"
      d="M42.593 2.104c.687.852 1.037 2.002 1.734 4.3L59.615 56.62a63.532 63.532 0 0 0-18.277-6.187l-9.952-33.635a1.294 1.294 0 0 0-2.485.003L19.07 50.416A63.607 63.607 0 0 0 .712 56.612l15.36-50.22c.703-2.293 1.053-3.441 1.74-4.293A5.647 5.647 0 0 1 20.1.406C21.112 0 22.314 0 24.714 0h10.972c2.401 0 3.604 0 4.619.409.895.36 1.682.944 2.288 1.695Z"
      fill="#fff"></path>
    <path
      d="M44.42 59.008c-2.52 2.157-7.55 3.627-13.343 3.627-7.109 0-13.07-2.215-14.65-5.193-.566 1.707-.693 3.66-.693 4.909 0 0-.372 6.124 3.888 10.384a4.002 4.002 0 0 1 4.005-4.003c3.79 0 3.788 3.306 3.785 5.992v.237A9.787 9.787 0 0 0 33.443 84a8.187 8.187 0 0 1-.827-3.6c0-3.888 2.28-5.333 4.933-7.015 2.11-1.337 4.453-2.824 6.066-5.804a11.015 11.015 0 0 0 .806-8.574Z"
      fill="#FF5D01"></path>
    <path
      d="M44.42 59.008c-2.52 2.157-7.55 3.627-13.343 3.627-7.109 0-13.07-2.215-14.65-5.193-.566 1.707-.693 3.66-.693 4.909 0 0-.372 6.124 3.888 10.384a4.002 4.002 0 0 1 4.005-4.003c3.79 0 3.788 3.306 3.785 5.992v.237A9.787 9.787 0 0 0 33.443 84a8.187 8.187 0 0 1-.827-3.6c0-3.888 2.28-5.333 4.933-7.015 2.11-1.337 4.453-2.824 6.066-5.804a11.015 11.015 0 0 0 .806-8.574Z"
      fill="url(#b)"></path>
  </g>
  <defs>
    <linearGradient
      id="b"
      x1="55.768"
      y1="41.481"
      x2="40.848"
      y2="72.715"
      gradientUnits="userSpaceOnUse"
    >
      <stop stop-color="#FF1639"></stop>
      <stop offset="1" stop-color="#FF1639" stop-opacity="0"></stop>
    </linearGradient>
    <clipPath id="a">
      <path fill="#fff" transform="translate(.712)" d="M0 0h58.902v84H0z"
      ></path>
    </clipPath>
  </defs>

  <style>
    @media (prefers-color-scheme: dark) {
      #icon {
        fill: rgba(255, 255, 255, 1);
      }
    }

    @media (prefers-color-scheme: light) {
      #icon {
        fill: rgba(30, 30, 30, 1);
      }
    }
  </style>
</svg>
