<svg width="23" height="24" viewBox="0 0 23 24" fill="none" xmlns="http://www.w3.org/2000/svg">
<path d="M7.19823 14.5017C7.15478 14.4261 7.12472 14.3436 7.10938 14.2578C7.12639 14.3433 7.15664 14.4255 7.19823 14.5017ZM7.30751 14.6365C7.34948 14.6781 7.39674 14.7142 7.44911 14.7401C7.39679 14.7134 7.3491 14.6784 7.30788 14.6365H7.30751Z" fill="#083042"/>
<path d="M11.5685 19.2638H11.542C11.2769 19.2649 11.0158 19.1988 10.7832 19.0717L5.45515 16.0941C5.14075 15.9179 4.94735 15.5912 4.94735 15.2382V9.17971C4.94735 8.92014 4.99442 8.67115 5.10427 8.45336L0.93821 6.13477C0.765601 6.49775 0.676744 6.90763 0.681849 7.3383V17.3445C0.684993 17.6339 0.76461 17.9173 0.912627 18.166C1.06064 18.4147 1.27179 18.6198 1.52466 18.7605L10.3122 23.6783C10.6998 23.8961 11.134 23.9999 11.5632 23.9999V23.9948C11.5736 23.3671 11.5685 20.8509 11.5685 19.2638Z" fill="#083042"/>
<path d="M15.75 9.55271L15.7184 9.5062C15.6923 9.4699 15.6664 9.43871 15.6403 9.4026C15.6664 9.4336 15.6923 9.47009 15.7184 9.5062C15.7312 9.5201 15.7419 9.53565 15.75 9.55271ZM11.3643 7.12522C11.3907 7.12522 11.4117 7.12012 11.438 7.12012C11.4117 7.12522 11.3854 7.12522 11.3643 7.12522Z" fill="#3DDB85"/>
<path d="M5.09875 8.44798C5.21554 8.2059 5.40137 8.00381 5.63283 7.86719L10.6466 4.93625C10.8763 4.80137 11.1373 4.72897 11.4036 4.72625C11.67 4.72353 11.9324 4.79059 12.1647 4.92074L17.2311 7.7583C17.4585 7.88522 17.6537 8.06264 17.8017 8.27688L21.8998 5.85468C21.6561 5.50372 21.3358 5.2128 20.9631 5.00393L12.5937 0.319857C12.2106 0.105807 11.7782 -0.00440818 11.3394 0.000134979C10.9005 0.00467813 10.4705 0.123822 10.0919 0.345758L1.81729 5.18013C1.43534 5.40323 1.12905 5.73573 0.937988 6.13468L5.09875 8.44798Z" fill="#3DDC84"/>
<path d="M7.20789 9.61542C7.21847 9.59463 7.22887 9.57383 7.23965 9.5587C7.22887 9.57931 7.21866 9.59463 7.20789 9.61542Z" fill="#3DDB85"/>
<path d="M21.8945 5.85449L17.7963 8.27669C17.9532 8.50488 18.0475 8.77447 18.0524 9.04974V14.8179C18.0556 15.0821 17.9885 15.3423 17.8579 15.572C17.7274 15.8017 17.5381 15.9926 17.3094 16.125L12.2953 19.0563C12.0739 19.1852 11.8237 19.2565 11.5676 19.2637C11.5731 20.8459 11.5731 23.3619 11.5625 23.9896V23.9947C12.002 23.9899 12.4329 23.8719 12.8135 23.6521L21.0883 18.8124C21.8578 18.3612 22.3289 17.5414 22.3183 16.6544V7.13573C22.313 6.67405 22.1561 6.23317 21.8945 5.85449Z" fill="#4285F4"/>
<path d="M15.8448 14.2009C15.8395 14.2115 15.8395 14.2219 15.8342 14.2327C15.8401 14.223 15.8437 14.2122 15.8448 14.2009ZM15.7922 9.62064C15.7815 9.59455 15.7658 9.57375 15.7501 9.54785C15.7658 9.57375 15.7817 9.59984 15.7922 9.62064ZM12.0342 16.7322L15.3943 14.7664L12.0342 16.7326V16.7322ZM15.8026 14.3202C15.7921 14.3463 15.7764 14.3722 15.7656 14.3983C15.7764 14.3671 15.7868 14.341 15.8026 14.3202Z" fill="#4285F4"/>
<path d="M7.19264 9.66183C7.14999 9.7626 7.12351 9.86947 7.11418 9.9785C7.10889 10.0197 7.10889 10.0613 7.10889 10.1082V14.1697C7.10889 14.2007 7.10889 14.2268 7.11418 14.258C7.12477 14.3459 7.15615 14.4291 7.20304 14.5019C7.23461 14.5537 7.2711 14.5949 7.30796 14.6365C7.34993 14.6781 7.39682 14.7142 7.449 14.7405L11.0188 16.7375C11.1741 16.8232 11.3488 16.8678 11.5262 16.867H11.5631C11.7295 16.8613 11.8917 16.8131 12.0342 16.7271L15.3943 14.7611C15.4153 14.7507 15.431 14.735 15.452 14.7248C15.4886 14.6989 15.5253 14.6728 15.5567 14.6416C15.606 14.597 15.6513 14.5486 15.6926 14.4964C15.7187 14.4601 15.745 14.424 15.766 14.3875C15.7815 14.3618 15.7923 14.3357 15.8025 14.3096C15.8131 14.2841 15.8289 14.2527 15.8393 14.2217C15.8444 14.2111 15.8444 14.2007 15.8497 14.1905C15.8814 14.0898 15.8973 13.9847 15.8968 13.8791V10.0146C15.8968 9.9422 15.8862 9.87471 15.8707 9.8074C15.8603 9.76052 15.8443 9.71892 15.8288 9.67733L15.7974 9.61532C15.787 9.58923 15.7709 9.56862 15.7554 9.54253L15.724 9.49603C15.6979 9.45954 15.6716 9.42853 15.6456 9.39223C15.5603 9.29286 15.4574 9.21017 15.3419 9.14835L11.9453 7.24493C11.8868 7.21182 11.8254 7.18398 11.762 7.16174C11.6768 7.13603 11.5889 7.12042 11.5001 7.11523H11.432C11.4061 7.11523 11.3852 7.11523 11.3591 7.12015C11.2989 7.12554 11.2394 7.13598 11.181 7.15134C11.1706 7.15645 11.1602 7.15645 11.1496 7.16193C11.0711 7.18273 10.9978 7.21884 10.9244 7.26024L7.56432 9.22643C7.4668 9.28373 7.38139 9.35951 7.31288 9.44952C7.28698 9.48582 7.2607 9.52212 7.23971 9.55842C7.22932 9.57921 7.21892 9.59471 7.20833 9.61551L7.19264 9.66183Z" fill="#D6F0FF"/>
<path d="M11.563 16.8669H11.5264C11.3488 16.8679 11.174 16.8234 11.0186 16.7376L7.44917 14.7404C7.39786 14.7119 7.35035 14.677 7.30775 14.6366C7.26681 14.5967 7.23157 14.5512 7.20301 14.5017C7.15956 14.4261 7.1295 14.3436 7.11416 14.2578C7.10867 14.227 7.10867 14.2009 7.10867 14.1699V10.108C7.10867 10.0666 7.10867 10.0201 7.11416 9.97828C7.12418 9.86957 7.15046 9.76275 7.19262 9.6618L6.22937 9.07591L5.09881 8.44824C4.99407 8.66604 4.94189 8.91483 4.94189 9.17441V15.2331C4.94498 15.4076 4.9934 15.5782 5.0824 15.7283C5.1714 15.8784 5.29791 16.0028 5.44951 16.0892L10.7728 19.0717C11.0045 19.2012 11.2662 19.2675 11.5317 19.2638H11.5581C11.5581 18.4907 11.5526 17.941 11.5526 17.941L11.563 16.8669Z" fill="#083042"/>
<path d="M11.563 16.8669H11.5264C11.3488 16.8679 11.174 16.8234 11.0186 16.7376L7.44917 14.7404C7.39786 14.7119 7.35035 14.677 7.30775 14.6366C7.26681 14.5967 7.23157 14.5512 7.20301 14.5017C7.15956 14.4261 7.1295 14.3436 7.11416 14.2578C7.10867 14.227 7.10867 14.2009 7.10867 14.1699V10.108C7.10867 10.0666 7.10867 10.0201 7.11416 9.97828C7.12418 9.86957 7.15046 9.76275 7.19262 9.6618L6.22937 9.07591L5.09881 8.44824C4.99407 8.66604 4.94189 8.91483 4.94189 9.17441V15.2331C4.94498 15.4076 4.9934 15.5782 5.0824 15.7283C5.1714 15.8784 5.29791 16.0028 5.44951 16.0892L10.7728 19.0717C11.0045 19.2012 11.2662 19.2675 11.5317 19.2638H11.5581C11.5581 18.4907 11.5526 17.941 11.5526 17.941L11.563 16.8669Z" fill="#041619"/>
<path d="M17.2258 7.75824L12.1593 4.9205C11.9269 4.7904 11.6645 4.7234 11.3982 4.72616C11.1319 4.72891 10.871 4.80132 10.6413 4.93619L5.62754 7.86732C5.39487 8.0026 5.20861 8.20514 5.09326 8.44829L6.22949 9.07596L7.19236 9.66185L7.20786 9.61534C7.21845 9.59436 7.22885 9.57375 7.23925 9.55825C7.26023 9.52195 7.28651 9.48565 7.3126 9.44935C7.38066 9.36106 7.46441 9.28865 7.56404 9.22626L10.924 7.26007C10.9958 7.21974 11.0709 7.18697 11.1491 7.16176C11.1597 7.15666 11.1701 7.15666 11.1805 7.15118C11.2389 7.1353 11.2982 7.12496 11.3584 7.12017C11.3845 7.12017 11.4055 7.11488 11.4318 7.11488H11.4998C11.5885 7.12055 11.6762 7.13586 11.7615 7.16139C11.826 7.1818 11.8871 7.20959 11.9447 7.24476L15.3413 9.14856C15.4559 9.21165 15.5588 9.2941 15.6453 9.39225C15.6712 9.42326 15.6976 9.45975 15.7235 9.49586L15.7551 9.54237L16.6238 8.96688L17.8015 8.26661C17.6497 8.06413 17.4561 7.88264 17.2258 7.75824Z" fill="#3DDB85"/>
<path d="M17.2258 7.75824L12.1593 4.9205C11.9269 4.7904 11.6645 4.7234 11.3982 4.72616C11.1319 4.72891 10.871 4.80132 10.6413 4.93619L5.62754 7.86732C5.39487 8.0026 5.20861 8.20514 5.09326 8.44829L6.22949 9.07596L7.19236 9.66185L7.20786 9.61534C7.21845 9.59436 7.22885 9.57375 7.23925 9.55825C7.26023 9.52195 7.28651 9.48565 7.3126 9.44935C7.38066 9.36106 7.46441 9.28865 7.56404 9.22626L10.924 7.26007C10.9958 7.21974 11.0709 7.18697 11.1491 7.16176C11.1597 7.15666 11.1701 7.15666 11.1805 7.15118C11.2389 7.1353 11.2982 7.12496 11.3584 7.12017C11.3845 7.12017 11.4055 7.11488 11.4318 7.11488H11.4998C11.5885 7.12055 11.6762 7.13586 11.7615 7.16139C11.826 7.1818 11.8871 7.20959 11.9447 7.24476L15.3413 9.14856C15.4559 9.21165 15.5588 9.2941 15.6453 9.39225C15.6712 9.42326 15.6976 9.45975 15.7235 9.49586L15.7551 9.54237L16.6238 8.96688L17.8015 8.26661C17.6497 8.06413 17.4561 7.88264 17.2258 7.75824Z" fill="#37BF6E"/>
<path d="M15.7497 9.55303C15.7653 9.57875 15.7759 9.59954 15.7914 9.62563L15.823 9.68783C15.867 9.79483 15.8901 9.90925 15.8911 10.0249V13.8896C15.8915 13.9952 15.8755 14.1001 15.8438 14.2008C15.8387 14.211 15.8387 14.2216 15.8334 14.2318C15.8235 14.2622 15.8113 14.2917 15.7969 14.3203C15.7861 14.3458 15.7704 14.3719 15.7601 14.3978C15.7393 14.4343 15.713 14.4704 15.6867 14.5069C15.6457 14.5591 15.6002 14.6076 15.5508 14.6519C15.5194 14.6831 15.4827 14.709 15.446 14.7351C15.425 14.7453 15.4095 14.761 15.3886 14.7714L12.0283 16.7372C11.8838 16.8188 11.7227 16.8667 11.5571 16.8775V17.9511C11.5571 17.9511 11.5571 18.5011 11.5624 19.274C11.8189 19.2693 12.0697 19.1978 12.2901 19.0666L17.3039 16.1354C17.7699 15.8607 18.0526 15.3626 18.0473 14.8285V9.06016C18.0422 8.77998 17.948 8.5153 17.7911 8.28711L16.6131 8.98756L15.7497 9.55303Z" fill="#4285F4"/>
<path d="M15.7497 9.55303C15.7653 9.57875 15.7759 9.59954 15.7914 9.62563L15.823 9.68783C15.867 9.79483 15.8901 9.90925 15.8911 10.0249V13.8896C15.8915 13.9952 15.8755 14.1001 15.8438 14.2008C15.8387 14.211 15.8387 14.2216 15.8334 14.2318C15.8235 14.2622 15.8113 14.2917 15.7969 14.3203C15.7861 14.3458 15.7704 14.3719 15.7601 14.3978C15.7393 14.4343 15.713 14.4704 15.6867 14.5069C15.6457 14.5591 15.6002 14.6076 15.5508 14.6519C15.5194 14.6831 15.4827 14.709 15.446 14.7351C15.425 14.7453 15.4095 14.761 15.3886 14.7714L12.0283 16.7372C11.8838 16.8188 11.7227 16.8667 11.5571 16.8775V17.9511C11.5571 17.9511 11.5571 18.5011 11.5624 19.274C11.8189 19.2693 12.0697 19.1978 12.2901 19.0666L17.3039 16.1354C17.7699 15.8607 18.0526 15.3626 18.0473 14.8285V9.06016C18.0422 8.77998 17.948 8.5153 17.7911 8.28711L16.6131 8.98756L15.7497 9.55303Z" fill="#3870B2"/>
<path d="M11.1551 7.16724C11.0764 7.18803 11.0031 7.22433 10.9301 7.26555L7.56982 9.23174L10.9297 7.26592C10.9996 7.22245 11.0754 7.18933 11.1547 7.16761L11.1551 7.16724Z" fill="#D6F0FF"/>
<path opacity="0.1" d="M11.1551 7.16724C11.0764 7.18803 11.0031 7.22433 10.9301 7.26555L7.56982 9.23174L10.9297 7.26592C10.9996 7.22245 11.0754 7.18933 11.1547 7.16761L11.1551 7.16724Z" fill="black"/>
<path d="M15.8231 9.68311C15.8392 9.72547 15.8531 9.76863 15.8647 9.81242C15.8543 9.77102 15.8383 9.72961 15.8228 9.68311H15.8231Z" fill="#D6F0FF"/>
<path opacity="0.1" d="M15.8231 9.68311C15.8392 9.72547 15.8531 9.76863 15.8647 9.81242C15.8543 9.77102 15.8383 9.72961 15.8228 9.68311H15.8231Z" fill="black"/>
</svg>
