<svg xmlns="http://www.w3.org/2000/svg" width="24" height="24" fill="none" viewBox="0 0 24 24"><path fill="#083042" d="M12.025 19.264h-.027a1.6 1.6 0 0 1-.759-.192l-5.328-2.978a.98.98 0 0 1-.508-.856V9.18c0-.26.047-.509.157-.727L1.394 6.135a2.7 2.7 0 0 0-.256 1.203v10.006a1.64 1.64 0 0 0 .843 1.416l8.787 4.918c.388.218.822.322 1.251.322v-.005c.01-.628.006-3.144.006-4.731"/><path fill="#3ddb85" d="m16.206 9.553-.032-.047c-.026-.036-.052-.067-.078-.103.026.03.052.067.078.103a.2.2 0 0 1 .032.047M11.82 7.125c.027 0 .048-.005.074-.005a.4.4 0 0 1-.074.005"/><path fill="#3ddc84" d="M5.555 8.448c.117-.242.302-.444.534-.58l5.014-2.932a1.53 1.53 0 0 1 1.518-.015l5.066 2.837c.227.127.423.305.57.519l4.099-2.422a2.8 2.8 0 0 0-.937-.851L13.05.32a2.52 2.52 0 0 0-2.501.026L2.273 5.18a2.2 2.2 0 0 0-.879.955z"/><path fill="#3ddb85" d="M7.664 9.615q.014-.032.032-.056z"/><path fill="#4285f4" d="m22.35 5.854-4.098 2.423c.157.228.252.497.257.773v5.768a1.49 1.49 0 0 1-.744 1.307l-5.014 2.931c-.221.13-.471.2-.727.208.005 1.582.005 4.098-.005 4.726v.005c.44-.005.87-.123 1.25-.343l8.275-4.84a2.47 2.47 0 0 0 1.23-2.158V7.136a2.3 2.3 0 0 0-.424-1.282"/><path fill="#4285f4" d="M16.3 14.2c-.004.011-.004.022-.01.033q.01-.014.01-.032m-.052-4.58c-.01-.025-.026-.046-.042-.072q.025.04.042.073m-3.758 7.112 3.36-1.966zm3.769-2.412c-.01.026-.027.052-.037.078a.3.3 0 0 1 .037-.078"/><path fill="#d6f0ff" d="M7.649 9.662q-.065.151-.079.316-.006.061-.005.13v4.062q-.001.043.005.088a.6.6 0 0 0 .09.244 1 1 0 0 0 .104.134.6.6 0 0 0 .141.105l3.57 1.997c.155.085.33.13.507.129h.037a1 1 0 0 0 .471-.14l3.36-1.966c.021-.01.037-.026.058-.036a1.213 1.213 0 0 0 .24-.228q.041-.055.074-.11a1 1 0 0 0 .037-.077c.01-.026.026-.057.036-.088.005-.01.005-.021.01-.031q.048-.152.048-.312v-3.864a1 1 0 0 0-.026-.208c-.01-.046-.027-.088-.042-.13l-.032-.062c-.01-.026-.026-.046-.041-.072l-.032-.047c-.026-.036-.052-.067-.078-.104a1.1 1.1 0 0 0-.304-.244l-3.397-1.903a1 1 0 0 0-.183-.083 1.1 1.1 0 0 0-.262-.047h-.068c-.026 0-.047 0-.073.005a1 1 0 0 0-.178.031c-.01.005-.02.005-.031.01a1 1 0 0 0-.226.1L8.02 9.225a.9.9 0 0 0-.251.224q-.04.054-.073.108c-.01.021-.021.037-.032.058z"/><path fill="#083042" d="M12.02 16.867h-.038a1.04 1.04 0 0 1-.507-.13l-3.57-1.997a.624.624 0 0 1-.246-.239.8.8 0 0 1-.089-.243c-.005-.031-.005-.057-.005-.088v-4.062c0-.041 0-.088.005-.13q.015-.163.079-.316l-.964-.586-1.13-.628a1.7 1.7 0 0 0-.157.726v6.06a1 1 0 0 0 .508.855l5.323 2.983c.232.13.493.195.759.192h.026c0-.773-.005-1.323-.005-1.323z"/><path fill="#041619" d="M12.02 16.867h-.038a1.04 1.04 0 0 1-.507-.13l-3.57-1.997a.624.624 0 0 1-.246-.239.8.8 0 0 1-.089-.243c-.005-.031-.005-.057-.005-.088v-4.062c0-.041 0-.088.005-.13q.015-.163.079-.316l-.964-.586-1.13-.628a1.7 1.7 0 0 0-.157.726v6.06a1 1 0 0 0 .508.855l5.323 2.983c.232.13.493.195.759.192h.026c0-.773-.005-1.323-.005-1.323z"/><path fill="#3ddb85" d="M17.682 7.758 12.615 4.92a1.53 1.53 0 0 0-1.518.016L6.084 7.867a1.33 1.33 0 0 0-.535.581l1.137.628.962.586.016-.047.031-.057q.033-.054.074-.109a1 1 0 0 1 .251-.223l3.36-1.966q.108-.06.225-.098c.01-.005.021-.005.032-.01a1 1 0 0 1 .178-.032c.026 0 .046-.005.073-.005h.068q.134.008.261.046a.8.8 0 0 1 .184.084l3.396 1.904a1.1 1.1 0 0 1 .383.347l.031.046.869-.575 1.178-.7a1.8 1.8 0 0 0-.576-.509"/><path fill="#37bf6e" d="M17.682 7.758 12.615 4.92a1.53 1.53 0 0 0-1.518.016L6.084 7.867a1.33 1.33 0 0 0-.535.581l1.137.628.962.586.016-.047.031-.057q.033-.054.074-.109a1 1 0 0 1 .251-.223l3.36-1.966q.108-.06.225-.098c.01-.005.021-.005.032-.01a1 1 0 0 1 .178-.032c.026 0 .046-.005.073-.005h.068q.134.008.261.046a.8.8 0 0 1 .184.084l3.396 1.904a1.1 1.1 0 0 1 .383.347l.031.046.869-.575 1.178-.7a1.8 1.8 0 0 0-.576-.509"/><path fill="#4285f4" d="m16.206 9.553.041.073.032.062a.9.9 0 0 1 .068.337v3.865q0 .159-.047.31c-.005.011-.005.022-.01.032a1 1 0 0 1-.037.088c-.01.026-.026.052-.037.078-.02.036-.047.072-.073.109q-.062.078-.136.145-.049.045-.105.083c-.02.01-.036.026-.057.036l-3.36 1.966c-.145.082-.306.13-.472.14v1.074s0 .55.005 1.323c.257-.005.508-.076.728-.207l5.014-2.932c.466-.274.749-.772.743-1.307V9.06c-.005-.28-.099-.545-.256-.773l-1.178.7z"/><path fill="#3870b2" d="m16.206 9.553.041.073.032.062a.9.9 0 0 1 .068.337v3.865q0 .159-.047.31c-.005.011-.005.022-.01.032a1 1 0 0 1-.037.088c-.01.026-.026.052-.037.078-.02.036-.047.072-.073.109q-.062.078-.136.145-.049.045-.105.083c-.02.01-.036.026-.057.036l-3.36 1.966c-.145.082-.306.13-.472.14v1.074s0 .55.005 1.323c.257-.005.508-.076.728-.207l5.014-2.932c.466-.274.749-.772.743-1.307V9.06c-.005-.28-.099-.545-.256-.773l-1.178.7z"/><path fill="#d6f0ff" d="M11.611 7.167a1 1 0 0 0-.225.099l-3.36 1.966 3.36-1.966a.9.9 0 0 1 .225-.098"/><path fill="#000" d="M11.611 7.167a1 1 0 0 0-.225.099l-3.36 1.966 3.36-1.966a.9.9 0 0 1 .225-.098" opacity=".1"/><path fill="#d6f0ff" d="M16.28 9.683q.024.063.04.13-.017-.061-.041-.13"/><path fill="#000" d="M16.28 9.683q.024.063.04.13-.017-.061-.041-.13" opacity=".1"/></svg>