<svg width="22" height="24" viewBox="0 0 22 24" fill="none" xmlns="http://www.w3.org/2000/svg">
<g clip-path="url(#clip0_5033_765)">
<path d="M16.5847 17.5074C16.733 16.2276 16.6886 16.0398 17.6084 16.247L17.8419 16.2684C18.5492 16.3018 19.4746 16.1505 20.0179 15.8888C21.188 15.3262 21.8818 14.3864 20.7281 14.6333C18.096 15.1958 17.9151 14.2726 17.9151 14.2726C20.6945 9.99895 21.8564 4.57416 20.8536 3.24617C18.1186 -0.375867 13.384 1.33689 13.3047 1.3814L13.2793 1.38651C12.7593 1.27438 12.1775 1.20774 11.5236 1.1968C10.3326 1.17661 9.42884 1.52052 8.74332 2.05926C8.74332 2.05926 0.297185 -1.54697 0.69005 6.59435C0.773599 8.32632 3.0855 19.6996 5.84283 16.2643C6.85057 15.0083 7.82452 13.9462 7.82452 13.9462C8.30821 14.2791 8.88718 14.4489 9.49455 14.3879L9.54149 14.3465C9.52694 14.5024 9.53327 14.6549 9.5605 14.8354C8.8501 15.6582 9.05897 15.8027 7.63865 16.1055C6.2019 16.4124 7.04607 16.9587 7.59688 17.1015C8.26526 17.2749 9.81067 17.5203 10.8553 16.0048L10.8137 16.1777C11.0925 16.4088 11.0735 17.8382 11.1129 18.8595C11.1524 19.8808 11.2186 20.8337 11.4194 21.396C11.6203 21.9579 11.8574 23.4053 13.7238 22.9908C15.2836 22.644 16.476 22.1454 16.5847 17.5074Z" fill="black"/>
<path d="M13.1161 24C12.2905 24 11.7531 23.6692 11.4264 23.3496C10.9335 22.8678 10.738 22.2469 10.6214 21.876L10.5709 21.721C10.3358 21.0631 10.2562 20.116 10.2091 18.8965C10.2021 18.7059 10.1962 18.5152 10.1915 18.3244C10.1875 18.1783 10.1825 17.9949 10.1755 17.8025C9.87802 17.9494 9.56234 18.0528 9.23745 18.1099C8.65543 18.2131 8.02976 18.1795 7.37733 18.0105C6.91711 17.8913 6.43882 17.6442 6.16635 17.2623C5.37193 17.9835 4.61413 17.8854 4.20132 17.7429C3.47308 17.4912 2.82136 16.7841 2.20859 15.5807C1.77231 14.7238 1.35011 13.6069 0.953724 12.2617C0.263746 9.91875 -0.174649 7.45103 -0.213607 6.64111C-0.336113 4.10504 0.322417 2.29159 1.74368 1.25134C3.98611 -0.390158 7.3832 0.574941 8.62164 1.01322C9.4536 0.493462 10.4325 0.24027 11.5388 0.258755C12.133 0.268727 12.6986 0.322965 13.2241 0.419767C13.7721 0.241243 14.8549 -0.0151118 16.0943 0.000697569C18.3778 0.0289112 20.2701 0.951203 21.5662 2.66785C22.4911 3.89271 22.034 6.46453 21.6789 7.88883C21.1797 9.89175 20.3046 12.0226 19.2297 13.8774C19.5217 13.8796 19.9443 13.8431 20.5456 13.7147C21.7317 13.4608 22.0783 14.1199 22.1724 14.4149C22.5496 15.5987 20.9103 16.493 20.3989 16.7389C19.7437 17.0544 18.6756 17.2463 17.8007 17.2047L17.7624 17.202L17.5327 17.1811L17.5099 17.3795L17.4881 17.5739C17.4294 19.9244 17.1053 21.4129 16.4386 22.3967C15.7399 23.4277 14.7685 23.7169 13.9131 23.9068C13.6514 23.9673 13.3842 23.9985 13.1161 24ZM11.379 15.445C11.9119 15.8869 11.9586 16.7185 12.0002 18.2726C12.0053 18.4665 12.0103 18.6501 12.0168 18.8216C12.037 19.3406 12.0842 20.5562 12.2677 21.0699C12.2938 21.1424 12.317 21.2163 12.3414 21.2942C12.5461 21.9441 12.6489 22.2697 13.5339 22.0732C14.2771 21.9083 14.6589 21.7602 14.9579 21.319C15.3926 20.6774 15.6357 19.3876 15.6803 17.4841L16.5843 17.507L15.6864 17.3953L15.7127 17.1631C15.7988 16.3974 15.8608 15.8438 16.3548 15.478C16.7509 15.1845 17.2027 15.2129 17.5625 15.2801C17.1673 14.9709 17.0579 14.6076 17.0288 14.4587L16.9535 14.0739L17.1652 13.748C18.3855 11.8713 19.3921 9.56486 19.9267 7.4199C20.4759 5.21583 20.3083 4.04521 20.141 3.82388C17.9241 0.887966 14.0793 2.09993 13.678 2.23784L13.6099 2.27578L13.2696 2.3417L13.0952 2.30424C12.6148 2.20087 12.0812 2.14371 11.5088 2.13399C10.6097 2.11842 9.88449 2.33853 9.28979 2.80625L8.87721 3.13046L8.39822 2.92591C7.37545 2.49249 4.37053 1.62103 2.78498 2.78484C1.90491 3.43084 1.50406 4.6968 1.59324 6.54747C1.62258 7.15844 2.02343 9.47122 2.68383 11.7147C3.597 14.8148 4.42685 15.8443 4.77325 15.9642C4.83356 15.9854 4.99057 15.8589 5.14663 15.6648C6.16189 14.3994 7.12739 13.3445 7.16799 13.3L7.69158 12.7292L8.32452 13.165C8.57963 13.3409 8.86102 13.4403 9.15015 13.4591L10.6599 12.1248L10.4412 14.4378C10.4362 14.4898 10.4339 14.5604 10.4536 14.6917L10.5193 15.1302L10.2346 15.4605L10.2018 15.4987L11.0312 15.8956L11.379 15.445Z" fill="black"/>
<path d="M20.9401 14.3182C18.2801 14.8678 18.0973 13.9655 18.0973 13.9655C20.9057 9.7902 22.0796 4.48993 21.0665 3.19273C18.3024 -0.346011 13.518 1.32759 13.4381 1.37108L13.4123 1.3756C12.8867 1.26652 12.2988 1.20141 11.6378 1.19072C10.4343 1.171 9.52122 1.50677 8.82848 2.03311C8.82848 2.03311 0.293189 -1.48995 0.69019 6.46414C0.774618 8.15628 3.11085 19.2679 5.89721 15.9117C6.91557 14.6846 7.89953 13.6469 7.89953 13.6469C8.38831 13.9722 8.97338 14.1381 9.58691 14.0784L9.63458 14.038C9.61987 14.1903 9.62651 14.3393 9.65355 14.5156C8.93591 15.3195 9.14651 15.4607 7.71171 15.7565C6.25959 16.0564 7.11265 16.5901 7.66973 16.7296C8.34491 16.899 9.90683 17.1388 10.9622 15.6582L10.92 15.8271C11.2012 16.0529 11.3988 17.2954 11.3656 18.4218C11.3324 19.5481 11.3103 20.3213 11.5321 20.9254C11.7538 21.5294 11.9746 22.8884 13.861 22.4835C15.4371 22.1449 16.2539 21.2678 16.3677 19.805C16.4483 18.7649 16.6307 18.9186 16.6423 17.9886L16.7889 17.5482C16.9575 16.1382 16.8157 15.6833 17.7869 15.8951L18.0228 15.9157C18.7376 15.9485 19.673 15.8005 20.222 15.5448C21.4045 14.9949 22.1057 14.077 20.9401 14.3182Z" fill="#336791"/>
<path d="M13.2105 23.4223C11.6543 23.4225 11.1614 22.1454 10.9596 21.6232C10.6646 20.858 10.6007 17.8878 10.6665 15.4519C10.6708 15.3706 10.7057 15.2943 10.7635 15.2391C10.8214 15.184 10.8977 15.1544 10.9762 15.1567C11.0548 15.159 11.1294 15.1929 11.1842 15.2514C11.239 15.3098 11.2696 15.388 11.2696 15.4694C11.1938 18.2789 11.3015 20.8247 11.5198 21.3909C11.8608 22.2743 12.3778 23.047 13.8401 22.7225C15.2283 22.4139 15.7481 21.8683 15.9795 20.4776C16.1574 19.4101 16.5085 16.3735 16.5517 15.7742C16.5576 15.6915 16.595 15.6147 16.6556 15.5606C16.7162 15.5065 16.7951 15.4796 16.8749 15.4857C16.9546 15.4919 17.0288 15.5307 17.081 15.5935C17.1332 15.6563 17.1591 15.738 17.1532 15.8207C17.1081 16.4443 16.7585 19.4753 16.5738 20.5839C16.3003 22.2268 15.5937 22.9721 13.9664 23.3337C13.7181 23.3906 13.4647 23.4202 13.2105 23.4223ZM4.77324 17.1849C4.63723 17.1849 4.50214 17.1618 4.37334 17.1165C3.36254 16.767 2.39986 15.0611 1.5118 12.0456C0.835907 9.75012 0.407604 7.35439 0.370055 6.57585C0.258579 4.26768 0.832387 2.63446 2.07505 1.72189C4.53363 -0.0835339 8.66975 1.63579 8.84459 1.70973C8.91796 1.74155 8.97623 1.80213 9.00671 1.87827C9.03719 1.95441 9.03741 2.03994 9.00733 2.11625C8.97725 2.19256 8.91929 2.25346 8.84609 2.28569C8.77288 2.31793 8.69035 2.31888 8.61647 2.28835V2.2886C8.57657 2.27157 4.61037 0.624968 2.42262 2.2329C1.35996 3.01388 0.872049 4.46445 0.97226 6.54496C1.00394 7.20068 1.40408 9.53924 2.08866 11.8635C2.88144 14.5552 3.78381 16.2541 4.56414 16.5236C4.68641 16.5661 5.05909 16.6948 5.5923 16.0308C6.59488 14.7806 7.51603 13.783 7.52518 13.773C7.58127 13.7167 7.65624 13.6851 7.73434 13.6848C7.81244 13.6846 7.88758 13.7158 7.94398 13.7718C8.00038 13.8277 8.03363 13.9042 8.03676 13.9851C8.03989 14.066 8.01265 14.1449 7.96076 14.2054C7.9516 14.2152 7.04454 15.198 6.05604 16.4304C5.58784 17.0137 5.13889 17.1849 4.77324 17.1849ZM17.8969 14.551C17.8421 14.5511 17.7884 14.5357 17.7414 14.5065C17.6945 14.4773 17.6561 14.4354 17.6304 14.3853C17.6047 14.3352 17.5926 14.2788 17.5956 14.2221C17.5985 14.1654 17.6163 14.1106 17.647 14.0636C20.4564 9.74306 21.4426 4.52282 20.5979 3.40449C19.5348 1.99673 18.0335 1.26123 16.1361 1.21916C14.731 1.18754 13.6141 1.55942 13.4318 1.62436L13.386 1.64358C13.2025 1.70341 13.0617 1.59907 13.0086 1.47721C12.9784 1.4074 12.9738 1.32854 12.9958 1.25548C13.0178 1.18243 13.0647 1.1202 13.1279 1.08052L13.2091 1.04598L13.2051 1.0472L13.2093 1.04574C13.5193 0.928264 14.6531 0.575594 16.0577 0.592376C18.1574 0.615239 19.8918 1.45459 21.0732 3.01899C21.6322 3.75935 21.6334 5.46506 21.0767 7.69855C20.5092 9.97558 19.4414 12.4231 18.1473 14.4131C18.1198 14.4557 18.0825 14.4906 18.0388 14.5146C17.9951 14.5387 17.9464 14.5512 17.8969 14.551ZM18.0403 16.5511C17.5606 16.5511 17.1307 16.4812 16.8732 16.3212C16.6085 16.157 16.558 15.9335 16.5515 15.8151C16.4792 14.5007 17.179 14.2718 17.536 14.1675C17.4862 14.0897 17.4153 13.998 17.3424 13.9034C17.1342 13.6339 16.8493 13.2647 16.6296 12.7125C16.5953 12.6264 16.4874 12.4258 16.3625 12.1938C15.6859 10.9365 14.2783 8.32022 15.1825 6.98032C15.6012 6.36035 16.4343 6.1164 17.6622 6.25261C17.301 5.11214 15.5808 1.54434 11.4996 1.47502C10.2719 1.45362 9.26515 1.84496 8.50875 2.6364C6.81502 4.40924 6.8765 7.61683 6.87721 7.64869C6.87824 7.68972 6.87147 7.73055 6.85727 7.76887C6.84307 7.80718 6.82174 7.84222 6.79447 7.87199C6.76721 7.90176 6.73456 7.92567 6.69838 7.94236C6.6622 7.95905 6.6232 7.96819 6.58362 7.96926C6.54403 7.97033 6.50463 7.9633 6.46766 7.94859C6.43069 7.93388 6.39688 7.91177 6.36815 7.88351C6.33943 7.85526 6.31636 7.82142 6.30025 7.78392C6.28415 7.74643 6.27533 7.70602 6.2743 7.66499C6.27054 7.5227 6.20718 4.15677 8.08021 2.19642C8.95677 1.27899 10.1105 0.826111 11.5095 0.849703C14.121 0.894213 15.8016 2.26987 16.7519 3.41641C17.7873 4.66559 18.2952 6.04368 18.337 6.50337C18.3682 6.84533 18.1314 6.91392 18.0835 6.92389L17.9748 6.92657C16.7697 6.72664 15.9967 6.86528 15.677 7.33883C14.9892 8.35744 16.3208 10.8322 16.8894 11.8892C17.0347 12.1587 17.1393 12.3536 17.1872 12.4739C17.374 12.9434 17.6176 13.2588 17.8134 13.5123C17.9854 13.7353 18.1347 13.9284 18.1882 14.1556C18.2128 14.2006 18.5644 14.7391 20.6496 14.293C21.1722 14.1814 21.4855 14.2769 21.5813 14.5771C21.7697 15.1679 20.7125 15.8567 20.1271 16.1385C19.6019 16.3913 18.7648 16.5511 18.0403 16.5511ZM17.153 15.7635C17.2189 15.8328 17.5498 15.952 18.2353 15.9216C18.8446 15.8944 19.4874 15.7569 19.8732 15.5716C20.3665 15.3342 20.6956 15.0689 20.8662 14.8877L20.7714 14.9057C19.4381 15.191 18.4951 15.153 17.9687 14.7926C17.9334 14.7683 17.8993 14.7421 17.8666 14.714C17.8096 14.7374 17.7568 14.7527 17.7193 14.7636C17.4205 14.8505 17.1117 14.9402 17.153 15.7635ZM8.54067 17.5096C8.20953 17.5096 7.86101 17.4631 7.505 17.3705C7.1363 17.2749 6.51438 16.9871 6.52401 16.5146C6.53457 15.9841 7.27876 15.825 7.55921 15.7652C8.57118 15.5492 8.63712 15.4626 8.95348 15.0465C9.04571 14.9251 9.16047 14.7741 9.31678 14.5929C9.54912 14.3236 9.80305 14.1869 10.0715 14.1869C10.2583 14.1869 10.4118 14.2529 10.513 14.2962C10.8359 14.4348 11.1053 14.7699 11.2161 15.1713C11.3161 15.5332 11.2684 15.8815 11.0819 16.1519C10.4698 17.0404 9.59112 17.5096 8.54067 17.5096ZM7.1755 16.5416C7.26655 16.6143 7.44867 16.7116 7.65121 16.7644C7.95958 16.8441 8.25857 16.8848 8.54067 16.8848C9.40009 16.8848 10.0898 16.5158 10.5911 15.7888C10.6956 15.637 10.6643 15.4446 10.6364 15.3432C10.5777 15.1311 10.4322 14.9383 10.2823 14.8736C10.2008 14.8385 10.1335 14.8118 10.0715 14.8118C10.0382 14.8118 9.93705 14.8118 9.76644 15.0095C9.62234 15.1764 9.51884 15.3126 9.42708 15.433C9.03327 15.9513 8.8528 16.1271 7.68078 16.3774C7.39493 16.4387 7.24825 16.5005 7.1755 16.5416ZM9.49467 15.0998C9.42268 15.0996 9.35309 15.0729 9.29848 15.0242C9.24387 14.9756 9.20782 14.9084 9.19685 14.8346C9.18913 14.7828 9.18412 14.7305 9.18183 14.678C8.41347 14.6629 7.67233 14.3214 7.10978 13.7129C6.39845 12.9436 6.07458 11.8778 6.2215 10.7889C6.38108 9.60637 6.32147 8.56247 6.28932 8.0016C6.28133 7.88624 6.2764 7.77066 6.27453 7.65502C6.275 7.55627 6.27688 7.29383 7.12293 6.84947C7.42379 6.69138 8.02717 6.41556 8.68617 6.34479C9.7784 6.22804 10.4982 6.73199 10.7136 7.76422C11.2952 10.5515 10.7596 11.7844 10.3686 12.6846C10.2957 12.8519 10.2269 13.0105 10.172 13.1637L10.1234 13.2992C9.91687 13.8732 9.73827 14.3691 9.79319 14.7398C9.80526 14.8217 9.78548 14.9053 9.73818 14.9721C9.69088 15.039 9.61994 15.0836 9.5409 15.0963L9.49467 15.0998ZM6.87956 7.74136L6.89152 7.96463C6.92485 8.54715 6.98681 9.63142 6.81877 10.8757C6.69767 11.7737 6.9624 12.6505 7.54513 13.2807C8.00558 13.7788 8.61201 14.0537 9.23511 14.0537H9.24801C9.31795 13.7489 9.43365 13.4274 9.55827 13.0808L9.60661 12.9463C9.66881 12.7731 9.74156 12.6055 9.81854 12.4282C10.195 11.5614 10.6634 10.4825 10.1239 7.89629C10.0168 7.38431 9.75775 7.08782 9.3318 6.99005C8.45688 6.78964 7.1532 7.47163 6.87956 7.74136ZM8.69979 7.6088C8.68476 7.71923 8.89528 8.01425 9.16939 8.05365C9.44327 8.0933 9.67772 7.86273 9.69251 7.7523C9.70729 7.64188 9.49701 7.52003 9.22267 7.48038C8.94879 7.44074 8.71434 7.49814 8.69979 7.6088ZM9.23252 8.16262L9.15555 8.15702C8.9854 8.13246 8.81337 8.02131 8.6958 7.85956C8.65449 7.80289 8.5869 7.69247 8.60028 7.59421C8.61952 7.44998 8.78897 7.36388 9.05393 7.36388C9.11354 7.36388 9.17456 7.36834 9.23698 7.37726C9.38155 7.39817 9.51602 7.44147 9.6153 7.49887C9.78732 7.59859 9.8 7.7095 9.79225 7.76714C9.77089 7.92596 9.52635 8.16262 9.23252 8.16262ZM8.79976 7.62729C8.80844 7.69539 8.97108 7.92037 9.18324 7.95077L9.23229 7.95442C9.42802 7.95442 9.57446 7.79462 9.59159 7.74233C9.57352 7.70682 9.44773 7.61805 9.20882 7.584C9.15742 7.57655 9.10559 7.57265 9.05369 7.57232C8.90068 7.57208 8.81877 7.60783 8.79976 7.62729ZM17.0422 7.38334C17.057 7.494 16.8469 7.78903 16.5726 7.82843C16.2985 7.86783 16.064 7.6375 16.049 7.52684C16.0344 7.41642 16.2447 7.29456 16.5188 7.25516C16.7929 7.21527 17.0272 7.27316 17.0422 7.38334ZM16.5094 7.88486C16.2454 7.88486 16.018 7.67204 15.9992 7.53413C15.9776 7.3685 16.2407 7.24251 16.512 7.2036C16.572 7.19484 16.6305 7.19046 16.6878 7.19046C16.9218 7.19046 17.0767 7.26173 17.0922 7.37628C17.1023 7.45071 17.0473 7.56527 16.9525 7.66839C16.8901 7.73649 16.7587 7.85446 16.5799 7.87999L16.5094 7.88486ZM16.6876 7.29456C16.635 7.29456 16.581 7.29853 16.5256 7.30648C16.2529 7.34564 16.0908 7.45922 16.0985 7.52003C16.1077 7.58667 16.2816 7.78076 16.5092 7.78076L16.5653 7.77663C16.7141 7.75498 16.8258 7.65453 16.8791 7.5964C16.9626 7.50519 16.996 7.41958 16.992 7.39015C16.987 7.35196 16.8866 7.29456 16.6876 7.29456ZM17.4372 13.7285C17.3825 13.7284 17.329 13.713 17.2821 13.6839C17.2353 13.6548 17.197 13.613 17.1713 13.5631C17.1455 13.5131 17.1334 13.4569 17.1361 13.4003C17.1389 13.3438 17.1564 13.2891 17.1868 13.242C17.8289 12.248 17.7113 11.234 17.5977 10.2538C17.5491 9.83597 17.4991 9.40426 17.5123 8.98957C17.5254 8.5632 17.5775 8.2115 17.6282 7.871C17.688 7.46798 17.7446 7.08685 17.7211 6.63495C17.7194 6.55373 17.7482 6.475 17.8015 6.41543C17.8548 6.35585 17.9284 6.3201 18.0067 6.31574C18.0849 6.31138 18.1618 6.33875 18.2209 6.39206C18.2801 6.44537 18.3169 6.52044 18.3236 6.60138C18.3503 7.11798 18.2863 7.54897 18.2243 7.96609C18.1764 8.28788 18.1269 8.6206 18.1149 9.00951C18.1034 9.37653 18.1487 9.76641 18.1966 10.1789C18.3177 11.2216 18.4545 12.4034 17.688 13.5896C17.6298 13.6796 17.5343 13.7285 17.4372 13.7285Z" fill="white"/>
</g>
<defs>
<clipPath id="clip0_5033_765">
<rect width="22" height="24" fill="white"/>
</clipPath>
</defs>
</svg>
