<svg xmlns="http://www.w3.org/2000/svg" width="23" height="24" fill="none" viewBox="0 0 23 24"><g clip-path="url(#a)"><path fill="#000" d="M16.813 17.507c.148-1.28.104-1.467 1.023-1.26l.234.021c.707.034 1.633-.117 2.176-.38 1.17-.562 1.864-1.502.71-1.255-2.632.563-2.813-.36-2.813-.36 2.78-4.274 3.941-9.699 2.939-11.027-2.735-3.622-7.47-1.91-7.55-1.865l-.025.006a9 9 0 0 0-1.755-.19c-1.191-.02-2.095.324-2.78.862 0 0-8.447-3.606-8.054 4.535.084 1.732 2.396 13.106 5.153 9.67 1.008-1.256 1.982-2.318 1.982-2.318a2.5 2.5 0 0 0 1.67.442l.047-.041a2 2 0 0 0 .019.488c-.71.823-.502.968-1.922 1.27-1.437.307-.593.854-.042.997.668.173 2.214.418 3.258-1.097l-.041.173c.279.23.26 1.66.299 2.682.04 1.02.106 1.974.307 2.536.2.562.437 2.01 2.304 1.595 1.56-.347 2.752-.846 2.86-5.484"/><path fill="#000" d="M13.344 24c-.825 0-1.363-.33-1.69-.65-.492-.482-.688-1.103-.805-1.474l-.05-.155c-.235-.658-.315-1.605-.362-2.825q-.01-.284-.018-.572c-.004-.146-.008-.33-.016-.522-.297.147-.613.25-.938.308-.582.103-1.207.07-1.86-.1-.46-.119-.938-.366-1.21-.748-.795.721-1.553.623-1.966.48-.728-.25-1.38-.958-1.992-2.161-.437-.857-.859-1.974-1.255-3.32C.492 9.92.053 7.452.014 6.642c-.122-2.536.536-4.35 1.958-5.39C4.214-.39 7.612.575 8.85 1.013 9.682.493 10.66.24 11.767.26c.594.01 1.16.064 1.685.16a9.4 9.4 0 0 1 2.87-.418c2.284.028 4.176.95 5.472 2.667.925 1.225.468 3.797.113 5.22-.5 2.004-1.374 4.135-2.45 5.99.293.002.715-.035 1.317-.163 1.186-.254 1.532.405 1.627.7.377 1.184-1.263 2.078-1.774 2.324-.655.315-1.723.507-2.598.466l-.038-.003-.23-.02-.023.198-.022.194c-.059 2.35-.383 3.839-1.05 4.823-.698 1.03-1.67 1.32-2.525 1.51q-.394.09-.797.093m-1.737-8.555c.533.442.58 1.273.621 2.828q.007.291.017.549c.02.519.067 1.734.25 2.248q.04.107.074.224c.205.65.308.976 1.193.78.743-.166 1.125-.314 1.424-.755.435-.642.678-1.931.722-3.835l.904.023-.898-.112.027-.232c.086-.766.148-1.32.642-1.685.396-.293.848-.265 1.208-.198-.396-.31-.505-.672-.534-.821l-.076-.385.212-.326c1.22-1.877 2.227-4.183 2.762-6.328.549-2.204.381-3.375.214-3.596C18.152.888 14.307 2.1 13.906 2.238l-.068.038-.34.066-.175-.038a8.3 8.3 0 0 0-1.586-.17c-.9-.016-1.624.205-2.22.672l-.412.324-.479-.204C7.603 2.492 4.6 1.62 3.013 2.785c-.88.646-1.28 1.912-1.192 3.762.03.611.43 2.924 1.09 5.168.914 3.1 1.744 4.13 2.09 4.25.06.02.218-.106.374-.3 1.015-1.266 1.98-2.32 2.021-2.365l.524-.57.633.435c.255.176.536.275.825.294l1.51-1.334-.219 2.313a1 1 0 0 0 .013.254l.065.438-.284.33-.033.039.83.397z"/><path fill="#336791" d="M21.168 14.318c-2.66.55-2.843-.352-2.843-.352 2.809-4.176 3.983-9.476 2.97-10.773-2.765-3.539-7.549-1.865-7.629-1.822l-.026.005a9.5 9.5 0 0 0-1.774-.185c-1.204-.02-2.117.316-2.81.842 0 0-8.535-3.523-8.138 4.431.085 1.692 2.42 12.804 5.207 9.448a52 52 0 0 1 2.003-2.265 2.58 2.58 0 0 0 1.687.431l.048-.04c-.015.152-.008.301.019.478-.718.803-.507.945-1.942 1.24-1.452.3-.6.834-.042.974.675.169 2.237.409 3.292-1.072l-.042.17c.281.225.479 1.467.446 2.594-.034 1.126-.056 1.9.166 2.503s.443 1.963 2.329 1.558c1.576-.338 2.393-1.215 2.507-2.678.08-1.04.263-.886.274-1.816l.147-.44c.169-1.41.027-1.866.998-1.654l.236.02c.715.034 1.65-.114 2.199-.37 1.183-.55 1.884-1.468.718-1.227"/><path fill="#fff" d="M13.439 23.422c-1.557 0-2.05-1.277-2.251-1.799-.295-.765-.36-3.735-.293-6.171a.32.32 0 0 1 .097-.213.296.296 0 0 1 .42.012.32.32 0 0 1 .086.218c-.076 2.81.032 5.356.25 5.922.34.883.858 1.656 2.32 1.332 1.388-.31 1.908-.855 2.14-2.245.177-1.068.529-4.105.572-4.704a.32.32 0 0 1 .104-.213.295.295 0 0 1 .425.033.32.32 0 0 1 .072.227c-.045.623-.395 3.654-.58 4.763-.273 1.643-.98 2.388-2.607 2.75a3.5 3.5 0 0 1-.756.088M5 17.185q-.204 0-.4-.069c-1.01-.349-1.973-2.055-2.861-5.07C1.064 9.75.636 7.354.598 6.576c-.111-2.308.462-3.942 1.705-4.854 2.459-1.806 6.595-.086 6.77-.012a.3.3 0 0 1 .162.168c.03.076.03.162 0 .238a.3.3 0 0 1-.16.17.3.3 0 0 1-.23.002c-.04-.016-4.007-1.663-6.194-.055-1.063.78-1.55 2.231-1.45 4.312.031.656.431 2.994 1.116 5.319.792 2.691 1.695 4.39 2.475 4.66.122.042.495.17 1.028-.493 1.003-1.25 1.924-2.248 1.933-2.258a.296.296 0 0 1 .419-.001.32.32 0 0 1 .017.434c-.01.01-.916.992-1.905 2.224-.468.584-.917.755-1.283.755m13.124-2.634a.3.3 0 0 1-.155-.044.3.3 0 0 1-.112-.122.32.32 0 0 1 .017-.321c2.81-4.32 3.796-9.541 2.951-10.66-1.063-1.407-2.564-2.143-4.462-2.185a8.1 8.1 0 0 0-2.704.405l-.046.02a.3.3 0 0 1-.377-.167.32.32 0 0 1-.013-.222.3.3 0 0 1 .132-.174l.081-.035-.004.001.004-.001c.31-.118 1.444-.47 2.849-.454 2.1.023 3.834.863 5.015 2.427.56.74.56 2.446.004 4.68-.568 2.277-1.636 4.724-2.93 6.714a.3.3 0 0 1-.25.138m.143 2c-.48 0-.91-.07-1.167-.23a.63.63 0 0 1-.322-.506c-.072-1.314.628-1.543.985-1.647-.05-.078-.12-.17-.194-.265-.208-.27-.493-.638-.712-1.19-.035-.087-.143-.287-.267-.52-.677-1.256-2.085-3.873-1.18-5.213.418-.62 1.251-.864 2.48-.727-.362-1.14-2.082-4.709-6.163-4.778-1.228-.021-2.235.37-2.991 1.161C7.043 4.41 7.105 7.616 7.105 7.65a.32.32 0 0 1-.083.223.3.3 0 0 1-.21.097.3.3 0 0 1-.216-.085.31.31 0 0 1-.094-.219c-.003-.142-.067-3.508 1.806-5.469.877-.917 2.03-1.37 3.43-1.346 2.611.044 4.292 1.42 5.242 2.566 1.035 1.25 1.543 2.628 1.585 3.087.031.342-.206.41-.254.42l-.108.004c-1.205-.2-1.978-.062-2.298.412-.688 1.018.644 3.493 1.212 4.55.146.27.25.465.298.585.187.47.43.785.626 1.038.172.223.322.416.375.644.025.045.376.583 2.462.137q.785-.167.931.284c.189.59-.869 1.28-1.454 1.562-.525.252-1.362.412-2.087.412m-.887-.787c.066.069.397.188 1.082.158.61-.028 1.252-.165 1.638-.35.494-.238.823-.503.993-.684l-.095.018c-1.333.285-2.276.247-2.802-.113a1 1 0 0 1-.102-.079c-.057.023-.11.039-.148.05-.299.087-.607.176-.566 1M8.769 17.51c-.331 0-.68-.047-1.036-.14-.369-.095-.99-.383-.981-.855.01-.53.755-.69 1.035-.75 1.012-.216 1.078-.302 1.395-.719.092-.12.207-.272.363-.453q.35-.406.755-.406c.186 0 .34.066.441.11.323.138.592.473.703.874.1.362.052.71-.134.98-.612.89-1.49 1.359-2.541 1.359m-1.365-.968c.09.072.273.17.475.222q.465.12.89.12c.86 0 1.549-.368 2.05-1.095.105-.152.073-.344.045-.446-.058-.212-.204-.405-.354-.47a.6.6 0 0 0-.21-.061c-.034 0-.135 0-.306.197-.144.167-.247.304-.339.424-.394.518-.574.694-1.746.944-.286.062-.433.123-.505.165M9.723 15.1a.3.3 0 0 1-.196-.076.32.32 0 0 1-.102-.19 2 2 0 0 1-.015-.156c-.769-.015-1.51-.357-2.072-.965-.712-.77-1.035-1.835-.888-2.924.16-1.183.1-2.227.067-2.787a7 7 0 0 1-.014-.347c0-.099.002-.361.848-.806.3-.158.904-.433 1.563-.504 1.092-.117 1.812.387 2.028 1.42.581 2.787.046 4.02-.345 4.92a8 8 0 0 0-.197.479l-.049.135c-.206.574-.385 1.07-.33 1.44a.32.32 0 0 1-.055.233.3.3 0 0 1-.197.124zM7.108 7.74l.012.224c.033.582.095 1.666-.073 2.91-.121.899.143 1.775.726 2.406.46.498 1.067.773 1.69.773h.013c.07-.305.186-.627.31-.973l.049-.135c.062-.173.135-.34.212-.518.376-.867.844-1.946.305-4.532-.107-.512-.366-.808-.792-.906-.875-.2-2.179.482-2.452.751m1.82-.132c-.015.11.195.405.47.445.273.04.508-.191.523-.302.014-.11-.196-.232-.47-.272s-.509.018-.523.129m.533.554-.077-.006a.72.72 0 0 1-.46-.297c-.041-.057-.11-.168-.096-.266.02-.144.189-.23.454-.23q.09 0 .183.013c.145.021.279.064.378.122.172.1.185.21.177.268-.021.159-.266.396-.56.396m-.433-.536c.008.068.171.293.383.324l.05.003c.195 0 .341-.16.359-.212-.018-.035-.144-.124-.383-.158a1 1 0 0 0-.155-.012c-.153 0-.235.036-.254.055m8.242-.244c.015.111-.195.406-.47.445-.274.04-.508-.19-.523-.301s.196-.232.47-.272.508.018.523.128m-.532.502c-.264 0-.492-.213-.51-.35-.022-.167.24-.292.512-.331q.09-.014.176-.014c.234 0 .389.072.404.186.01.075-.045.19-.14.292a.65.65 0 0 1-.372.212zm.178-.59q-.08 0-.162.011c-.273.04-.435.153-.428.214.01.067.184.26.411.26l.056-.003a.56.56 0 0 0 .314-.18c.084-.092.117-.177.113-.207-.005-.038-.105-.095-.304-.095m.75 6.434a.3.3 0 0 1-.156-.045.3.3 0 0 1-.11-.12.32.32 0 0 1 .015-.322c.642-.994.524-2.008.41-2.988-.048-.418-.098-.85-.085-1.264.013-.427.066-.779.116-1.119.06-.403.117-.784.093-1.236a.32.32 0 0 1 .08-.22.295.295 0 0 1 .42-.023c.06.053.096.128.103.21.026.516-.038.947-.1 1.364-.048.322-.097.655-.109 1.044-.012.367.034.756.082 1.169.12 1.043.258 2.224-.509 3.41a.3.3 0 0 1-.25.14"/></g><defs><clipPath id="a"><path fill="#fff" d="M0 0h22.456v24H0z"/></clipPath></defs></svg>