<svg width="85" height="84" viewBox="0 0 85 84" fill="none" xmlns="http://www.w3.org/2000/svg">
  <g clip-path="url(#a)">
    <path d="M.351 0h84v84h-84V0Z" fill="#3178C6"></path>
    <path
      d="M49.74 65.78v9.064c1.474.755 3.217 1.322 5.23 1.699 2.012.378 4.133.566 6.363.566 2.173 0 4.237-.207 6.193-.623 1.955-.415 3.67-1.1 5.144-2.053 1.474-.953 2.641-2.2 3.5-3.739.86-1.538 1.29-3.44 1.29-5.706 0-1.643-.245-3.082-.736-4.319a10.106 10.106 0 0 0-2.127-3.3c-.925-.962-2.035-1.826-3.33-2.59-1.294-.766-2.754-1.488-4.38-2.167a55.339 55.339 0 0 1-3.202-1.43c-.945-.463-1.748-.935-2.409-1.417-.662-.48-1.172-.99-1.53-1.529a3.217 3.217 0 0 1-.54-1.827c0-.623.161-1.184.482-1.685.322-.5.776-.93 1.361-1.288.586-.359 1.304-.637 2.154-.836.85-.198 1.796-.297 2.835-.297a18.881 18.881 0 0 1 4.932.694c.847.235 1.676.534 2.48.892a13.68 13.68 0 0 1 2.225 1.246v-8.468c-1.38-.529-2.887-.92-4.521-1.175-1.635-.255-3.51-.383-5.626-.383-2.155 0-4.195.232-6.123.694-1.927.463-3.623 1.185-5.087 2.167a10.837 10.837 0 0 0-3.473 3.752c-.85 1.52-1.275 3.337-1.275 5.452 0 2.7.78 5.004 2.338 6.91 1.56 1.908 3.926 3.522 7.1 4.843 1.172.478 2.335.978 3.487 1.502 1.077.49 2.008 1 2.792 1.529.784.528 1.403 1.104 1.856 1.727a3.52 3.52 0 0 1 .68 2.124 3.249 3.249 0 0 1-.425 1.629c-.283.5-.713.934-1.29 1.302-.576.369-1.294.657-2.154.864-.86.208-1.865.312-3.018.312a17.23 17.23 0 0 1-5.839-1.034c-1.927-.69-3.713-1.723-5.357-3.101ZM34.634 43.229H46.29v-7.462H13.804v7.462h11.598v33.225h9.232V43.228Z"
      fill="#fff"></path>
  </g>
  <defs>
    <clipPath id="a">
      <rect x=".351" width="84" height="84" rx="2" fill="#fff"></rect>
    </clipPath>
  </defs>
</svg>
