<svg
  xmlns="http://www.w3.org/2000/svg"
  width="492"
  height="358"
  fill="none"
  viewBox="0 0 492 358"
  ><g clip-path="url(#a)"
    ><path
      fill="#f2f2f2"
      d="M286.589 63.082c9.221 0 16.696-7.476 16.696-16.696 0-9.222-7.475-16.697-16.696-16.697s-16.696 7.475-16.696 16.697c0 9.22 7.475 16.695 16.696 16.695M416.106 310.87c24.816-18.902 36.67-50.665 29.249-80.965a86 86 0 0 0-.584-2.254c-4.919-17.985-17.09-35.079-34.829-40.826-14.895-4.826-31.153-1.115-46.691-3.034-30.503-3.767-54.152-28.448-70.791-54.288-16.64-25.841-29.428-54.766-51.539-76.115-36.445-35.189-95.897-42.765-141.084-19.86-45.188 22.906-73.971 73.724-72.744 124.37s31.294 99.068 74.958 124.758c16.04 9.438 34.593 16.124 53.056 13.784 16.02-2.03 30.577-10.638 46.521-13.193 25.07-4.018 49.979 7.316 71.662 20.525s42.627 28.863 67.266 34.987c23.925 5.945 53.566-11.144 75.55-27.889"
    ></path><path
      fill="#3f3d56"
      d="M380.45 34.592c-.544-.363-1.094-.707-1.638-1.057a237.8 237.8 0 0 0-50.218-24.343l-4.09 56.415h-25.925V.957A214 214 0 0 0 293.658 0v65.607h-30.809A63.95 63.95 0 0 1 198.9 1.657c-1.651.357-3.289.738-4.928 1.144v62.806h-25.093l-3.896-53.795a238.2 238.2 0 0 0-51.237 27.22c-.275.187-.55.38-.819.568-1.382.97-2.745 1.958-4.102 2.958v215.223h73.954l-1.306-18.103-7.191-99.391h144.813l-7.191 99.391-1.307 18.103h73.136V36.768a188 188 0 0 0-3.283-2.176m-186.478 89.28h-20.878l-3.859-53.338h24.737zm99.686 0h-35.067v-1.056a3.863 3.863 0 0 0-3.871-3.865h-15.244a3.87 3.87 0 0 0-2.733 1.132 3.86 3.86 0 0 0-1.132 2.733v1.056H198.9V70.534h94.758zm4.921 0V70.534h25.569l-3.858 53.338zM0 271.562a181 181 0 0 0 17.584 18.103l456.833.625A181 181 0 0 0 492 272.188z"
    ></path><path
      fill="#3f3d56"
      d="M309.793 213.598v53.591a2.58 2.58 0 0 0 2.576 2.576h79.416a2.58 2.58 0 0 0 2.576-2.576v-53.591a2.58 2.58 0 0 0-2.576-2.573h-79.416a2.58 2.58 0 0 0-2.576 2.573"
    ></path><path
      class="about-illustration"
      d="M311.656 214.264v52.263a1.38 1.38 0 0 0 1.377 1.377h78.091a1.38 1.38 0 0 0 1.376-1.377v-52.263a1.38 1.38 0 0 0-1.376-1.379h-78.091a1.38 1.38 0 0 0-1.377 1.379"
    ></path><path
      fill="#2f2e41"
      d="M308.132 277.64c.146.182.331.329.541.43s.441.153.675.151h85.036a1.565 1.565 0 0 0 1.529-1.885l-1.32-6.27a1.57 1.57 0 0 0-.974-1.137 1.5 1.5 0 0 0-.555-.105h-82.402a1.579 1.579 0 0 0-1.187.549c-.17.199-.287.437-.342.693l-1.32 6.27a1.57 1.57 0 0 0 .319 1.304"
    ></path><path
      fill="#3f3d56"
      d="M390.146 271.525h2.008a.305.305 0 0 0 .306-.305v-.961a.306.306 0 0 0-.306-.305h-2.008a.305.305 0 0 0-.305.305v.961c0 .169.136.305.305.305M384.908 271.525h2.008a.304.304 0 0 0 .305-.305v-.961a.305.305 0 0 0-.305-.305h-2.008a.306.306 0 0 0-.306.305v.961c0 .169.137.305.306.305M379.67 271.525h2.008a.304.304 0 0 0 .305-.305v-.961a.305.305 0 0 0-.305-.305h-2.008a.306.306 0 0 0-.306.305v.961c0 .169.137.305.306.305M374.431 271.525h2.009a.305.305 0 0 0 .305-.305v-.961a.306.306 0 0 0-.305-.305h-2.009a.306.306 0 0 0-.305.305v.961c0 .169.137.305.305.305M369.193 271.525h2.009a.305.305 0 0 0 .305-.305v-.961a.306.306 0 0 0-.305-.305h-2.009a.306.306 0 0 0-.305.305v.961c0 .169.137.305.305.305M363.955 271.525h2.009a.305.305 0 0 0 .305-.305v-.961a.306.306 0 0 0-.305-.305h-2.009a.306.306 0 0 0-.305.305v.961c0 .169.137.305.305.305M358.717 271.525h2.009a.305.305 0 0 0 .305-.305v-.961a.306.306 0 0 0-.305-.305h-2.009a.305.305 0 0 0-.305.305v.961c0 .169.136.305.305.305M353.479 271.525h2.008a.305.305 0 0 0 .306-.305v-.961a.306.306 0 0 0-.306-.305h-2.008a.305.305 0 0 0-.305.305v.961c0 .169.136.305.305.305M348.241 271.525h2.008a.304.304 0 0 0 .305-.305v-.961a.305.305 0 0 0-.305-.305h-2.008a.306.306 0 0 0-.306.305v.961c0 .169.137.305.306.305M343.003 271.525h2.008a.304.304 0 0 0 .305-.305v-.961a.305.305 0 0 0-.305-.305h-2.008a.306.306 0 0 0-.306.305v.961c0 .169.137.305.306.305M337.764 271.525h2.009a.305.305 0 0 0 .305-.305v-.961a.306.306 0 0 0-.305-.305h-2.009a.306.306 0 0 0-.305.305v.961c0 .169.137.305.305.305M332.526 271.525h2.009a.305.305 0 0 0 .305-.305v-.961a.306.306 0 0 0-.305-.305h-2.009a.306.306 0 0 0-.305.305v.961c0 .169.137.305.305.305M327.288 271.525h2.009a.305.305 0 0 0 .305-.305v-.961a.306.306 0 0 0-.305-.305h-2.009a.306.306 0 0 0-.305.305v.961c0 .169.137.305.305.305M322.05 271.525h2.008a.305.305 0 0 0 .306-.305v-.961a.306.306 0 0 0-.306-.305h-2.008a.305.305 0 0 0-.305.305v.961c0 .169.136.305.305.305M316.812 271.525h2.008a.305.305 0 0 0 .306-.305v-.961a.306.306 0 0 0-.306-.305h-2.008a.305.305 0 0 0-.305.305v.961c0 .169.136.305.305.305M311.574 271.525h2.008a.304.304 0 0 0 .305-.305v-.961a.305.305 0 0 0-.305-.305h-2.008a.306.306 0 0 0-.306.305v.961c0 .169.137.305.306.305M390.208 274.145h2.008a.305.305 0 0 0 .305-.306v-.961a.305.305 0 0 0-.305-.305h-2.008a.306.306 0 0 0-.306.305v.961c0 .169.137.306.306.306M384.97 274.145h2.008a.305.305 0 0 0 .305-.306v-.961a.305.305 0 0 0-.305-.305h-2.008a.306.306 0 0 0-.306.305v.961c0 .169.137.306.306.306M379.731 274.145h2.009a.306.306 0 0 0 .305-.306v-.961a.306.306 0 0 0-.305-.305h-2.009a.306.306 0 0 0-.305.305v.961c0 .169.137.306.305.306M374.493 274.145h2.009a.306.306 0 0 0 .305-.306v-.961a.306.306 0 0 0-.305-.305h-2.009a.306.306 0 0 0-.305.305v.961c0 .169.137.306.305.306M369.255 274.145h2.009a.306.306 0 0 0 .305-.306v-.961a.306.306 0 0 0-.305-.305h-2.009a.305.305 0 0 0-.305.305v.961c0 .169.136.306.305.306M364.017 274.145h2.009a.306.306 0 0 0 .305-.306v-.961a.306.306 0 0 0-.305-.305h-2.009a.305.305 0 0 0-.305.305v.961c0 .169.136.306.305.306M358.779 274.145h2.008a.306.306 0 0 0 .306-.306v-.961a.306.306 0 0 0-.306-.305h-2.008a.305.305 0 0 0-.305.305v.961c0 .169.136.306.305.306M353.541 274.145h2.008a.305.305 0 0 0 .305-.306v-.961a.305.305 0 0 0-.305-.305h-2.008a.306.306 0 0 0-.306.305v.961c0 .169.137.306.306.306M348.303 274.145h2.008a.305.305 0 0 0 .305-.306v-.961a.305.305 0 0 0-.305-.305h-2.008a.306.306 0 0 0-.306.305v.961c0 .169.137.306.306.306M343.064 274.145h2.009a.305.305 0 0 0 .305-.306v-.961a.305.305 0 0 0-.305-.305h-2.009a.306.306 0 0 0-.305.305v.961c0 .169.137.306.305.306M337.826 274.145h2.009a.306.306 0 0 0 .305-.306v-.961a.306.306 0 0 0-.305-.305h-2.009a.306.306 0 0 0-.305.305v.961c0 .169.137.306.305.306M332.588 274.145h2.009a.306.306 0 0 0 .305-.306v-.961a.306.306 0 0 0-.305-.305h-2.009a.306.306 0 0 0-.305.305v.961c0 .169.137.306.305.306M327.35 274.145h2.009a.306.306 0 0 0 .305-.306v-.961a.306.306 0 0 0-.305-.305h-2.009a.305.305 0 0 0-.305.305v.961c0 .169.136.306.305.306M322.112 274.145h2.008a.306.306 0 0 0 .306-.306v-.961a.306.306 0 0 0-.306-.305h-2.008a.305.305 0 0 0-.305.305v.961c0 .169.136.306.305.306M316.874 274.145h2.008a.306.306 0 0 0 .306-.306v-.961a.306.306 0 0 0-.306-.305h-2.008a.306.306 0 0 0-.306.305v.961c0 .169.137.306.306.306M311.636 274.145h2.008a.305.305 0 0 0 .305-.306v-.961a.305.305 0 0 0-.305-.305h-2.008a.306.306 0 0 0-.306.305v.961c0 .169.137.306.306.306M346.731 277.287h20.342a.305.305 0 0 0 .305-.305v-.961a.304.304 0 0 0-.305-.305h-20.342a.305.305 0 0 0-.305.305v.961c0 .168.137.305.305.305"
    ></path><path
      fill="#fff"
      d="M325.179 224.318h-1.778a.976.976 0 0 0 0 1.953h1.778a.977.977 0 1 0 0-1.953M345.516 224.318h-1.778a.976.976 0 0 0 0 1.953h1.778a.976.976 0 0 0 0-1.953M351.278 224.318H349.5a.976.976 0 0 0 0 1.953h1.778a.976.976 0 0 0 0-1.953M339.984 224.156h-11.051a.976.976 0 0 0 0 1.953h11.051a.977.977 0 0 0 0-1.953M367.1 224.156h-11.051a.976.976 0 1 0 0 1.953H367.1a.977.977 0 0 0 0-1.953M330.602 228.725h-1.778a.976.976 0 0 0 0 1.952h1.778a.976.976 0 1 0 0-1.952M350.939 228.725h-1.778a.976.976 0 0 0 0 1.952h1.778a.976.976 0 0 0 0-1.952M356.701 228.725h-1.778a.976.976 0 0 0 0 1.952h1.778a.976.976 0 0 0 0-1.952M345.408 228.562h-11.052a.977.977 0 0 0 0 1.953h11.052a.976.976 0 0 0 0-1.953M372.523 228.562h-11.051a.977.977 0 0 0 0 1.953h11.051a.976.976 0 0 0 0-1.953M336.026 233.131h-1.779a.976.976 0 0 0 0 1.952h1.779a.976.976 0 0 0 0-1.952M356.362 233.131h-1.778a.976.976 0 0 0 0 1.952h1.778a.976.976 0 0 0 0-1.952M362.124 233.131h-1.778a.976.976 0 0 0 0 1.952h1.778a.976.976 0 1 0 0-1.952M350.831 232.969h-11.052a.976.976 0 0 0 0 1.952h11.052a.976.976 0 0 0 0-1.952M377.946 232.969h-11.051a.976.976 0 0 0 0 1.952h11.051a.976.976 0 0 0 0-1.952M341.449 237.537h-1.779a.976.976 0 0 0 0 1.952h1.779a.976.976 0 0 0 0-1.952M361.785 237.537h-1.778a.976.976 0 0 0 0 1.952h1.778a.976.976 0 1 0 0-1.952M367.548 237.537h-1.779a.976.976 0 0 0 0 1.952h1.779a.976.976 0 0 0 0-1.952M356.254 237.375h-11.052a.976.976 0 0 0 0 1.952h11.052a.976.976 0 0 0 0-1.952M345.516 255.059h-1.778a.976.976 0 0 0 0 1.952h1.778a.976.976 0 0 0 0-1.952M351.278 255.059H349.5a.976.976 0 0 0 0 1.952h1.778a.976.976 0 0 0 0-1.952M367.1 255.223h-11.051a.976.976 0 1 0 0 1.952H367.1a.976.976 0 0 0 0-1.952M325.179 255.059h-1.778a.976.976 0 0 0 0 1.952h1.778a.977.977 0 1 0 0-1.952M339.984 255.223h-11.051a.976.976 0 0 0 0 1.952h11.051a.976.976 0 1 0 0-1.952M330.602 250.652h-1.778a.976.976 0 0 0 0 1.953h1.778a.976.976 0 1 0 0-1.953M350.939 250.652h-1.778a.976.976 0 0 0 0 1.953h1.778a.976.976 0 0 0 0-1.953M356.701 250.652h-1.778a.976.976 0 0 0 0 1.953h1.778a.976.976 0 0 0 0-1.953M345.408 250.816h-11.052a.976.976 0 0 0 0 1.953h11.052a.976.976 0 0 0 0-1.953M336.026 246.246h-1.779a.976.976 0 0 0 0 1.952h1.779a.976.976 0 0 0 0-1.952M356.362 246.246h-1.778a.976.976 0 0 0 0 1.952h1.778a.976.976 0 0 0 0-1.952M362.124 246.246h-1.778a.976.976 0 0 0 0 1.952h1.778a.976.976 0 1 0 0-1.952M350.831 246.41h-11.052a.976.976 0 0 0 0 1.952h11.052a.976.976 0 0 0 0-1.952M341.449 241.84h-1.779a.976.976 0 0 0 0 1.952h1.779a.976.976 0 0 0 0-1.952M361.785 241.84h-1.778a.976.976 0 0 0 0 1.952h1.778a.976.976 0 1 0 0-1.952M367.548 241.84h-1.779a.976.976 0 0 0 0 1.952h1.779a.976.976 0 0 0 0-1.952M356.254 242.004h-11.052a.976.976 0 0 0 0 1.952h11.052a.976.976 0 0 0 0-1.952"
    ></path><path
      fill="#ffb6b6"
      d="m315.726 306.698-8.348-13.195 26.202-20.887 10.814-11.981a11.98 11.98 0 0 1 16.882-.903 11.98 11.98 0 0 1-3.845 20.174l-17.102 6.3z"
    ></path><path
      fill="#2f2e41"
      d="M119.864 211.027v64.131h44.928v-64.131a2.163 2.163 0 0 0-1.519-2.064 2 2 0 0 0-.644-.1h-40.595a2.167 2.167 0 0 0-2.17 2.164m17.534 22.036a4.793 4.793 0 0 1 4.796-4.752 4.794 4.794 0 0 1 4.796 4.752v7.441a4.798 4.798 0 0 1-8.179 3.375 4.8 4.8 0 0 1-1.413-3.375z"
    ></path><path
      fill="#3f3d56"
      d="M119.727 273.107v6.185a1.216 1.216 0 0 0 1.206 1.213h42.79a1.215 1.215 0 0 0 1.207-1.213v-6.185zM49.186 114.407v117.094a5.63 5.63 0 0 0 5.628 5.627h173.521a5.63 5.63 0 0 0 5.628-5.627V114.407a5.64 5.64 0 0 0-5.628-5.622H54.814a5.64 5.64 0 0 0-5.628 5.622"
    ></path><path
      fill="#fff"
      d="M53.257 115.864v114.192a3.01 3.01 0 0 0 3.008 3.008H226.89a3.01 3.01 0 0 0 3.007-3.008V115.864a3.01 3.01 0 0 0-3.007-3.014H56.265a3.01 3.01 0 0 0-3.008 3.014"
    ></path><path
      fill="#2f2e41"
      d="M84.922 280.086a1.84 1.84 0 0 0 1.451.694h101.512a1.86 1.86 0 0 0 1.448-.691 1.87 1.87 0 0 0 .377-1.56l-1.575-7.485a1.878 1.878 0 0 0-1.826-1.481H87.943a1.8 1.8 0 0 0-.663.125 1.87 1.87 0 0 0-1.163 1.356l-1.576 7.485a1.87 1.87 0 0 0 .381 1.557"
    ></path><path
      fill="#3f3d56"
      d="M221.353 128.578H61.699a.634.634 0 0 1 0-1.269h159.654a.634.634 0 0 1 0 1.269M72.567 124.068c2.055 0 3.72-1.703 3.72-3.803 0-2.101-1.665-3.804-3.72-3.804s-3.72 1.703-3.72 3.804 1.665 3.803 3.72 3.803M85.42 124.068c2.056 0 3.722-1.703 3.722-3.803 0-2.101-1.666-3.804-3.721-3.804s-3.721 1.703-3.721 3.804 1.666 3.803 3.72 3.803M98.275 124.068c2.054 0 3.72-1.703 3.72-3.803 0-2.101-1.666-3.804-3.72-3.804s-3.721 1.703-3.721 3.804 1.666 3.803 3.72 3.803M213.613 117.4h-9.129a.693.693 0 0 0-.675.691.689.689 0 0 0 .675.691h9.129a.69.69 0 0 0 0-1.382M213.613 119.996h-9.129a.691.691 0 0 0 0 1.382h9.129a.693.693 0 0 0 .683-.691.693.693 0 0 0-.683-.691M213.613 122.592h-9.129a.69.69 0 0 0-.675.691.69.69 0 0 0 .675.691h9.129a.693.693 0 0 0 .483-1.176.7.7 0 0 0-.483-.206"
    ></path><path
      fill="#2f2e41"
      d="M433.707 275.822a4.01 4.01 0 0 0 3.866 2.708l16.565-.426a3.955 3.955 0 0 0 3.74-2.912l2.344-25.067a6.1 6.1 0 0 0 2.65.545 6.04 6.04 0 0 0 5.888-6.191 6.043 6.043 0 0 0-6.191-5.888 5 5 0 0 0-1.085.113 4.09 4.09 0 0 0-3.048-1.315l-25.482.658a3.7 3.7 0 0 0-.628.078 3.97 3.97 0 0 0-2.699 1.891 3.97 3.97 0 0 0-.348 3.277zm26.996-27.399 1.668-5.973a4.07 4.07 0 0 0 .013-2.11c.081 0 .152-.039.233-.039a4.32 4.32 0 0 1 .203 8.64 4.07 4.07 0 0 1-2.117-.518"
    ></path><path
      fill="#3f3d56"
      d="M432.326 238.124c.543 3.104 6.646 5.286 13.985 4.907 6.749-.311 12.267-2.681 13.278-5.49a3.8 3.8 0 0 0-1.153-.153l-25.482.658a3.6 3.6 0 0 0-.628.078"
    ></path><path
      fill="#fff"
      d="M447.656 262.047a.3.3 0 0 0 .095-.041l3.597-2.355a.313.313 0 0 0 0-.523l-3.739-2.449a.313.313 0 0 0-.434.089.31.31 0 0 0 .004.348.3.3 0 0 0 .088.086l3.339 2.187-3.198 2.093a.32.32 0 0 0-.115.388.32.32 0 0 0 .149.155c.067.032.143.04.214.022M441.974 262.31a.31.31 0 0 0 .233-.261.309.309 0 0 0-.154-.313l-3.316-1.902 3.205-2.38a.3.3 0 0 0 .123-.205.313.313 0 0 0-.495-.297l-3.589 2.666a.31.31 0 0 0-.079.415.3.3 0 0 0 .11.107l3.73 2.138c.07.04.154.052.232.032M447.299 264.111a.32.32 0 0 0 .227-.229.312.312 0 0 0-.037-.237l-5.1-8.384a.311.311 0 0 0-.57.089.3.3 0 0 0 .036.236l5.1 8.385a.3.3 0 0 0 .149.126.3.3 0 0 0 .195.014"
    ></path><path
      class="about-illustration"
      d="M160.602 163.096H132.97a2.04 2.04 0 0 0-2.042 2.041v2.699c0 1.128.914 2.042 2.042 2.042h27.632a2.04 2.04 0 0 0 2.041-2.042v-2.699a2.04 2.04 0 0 0-2.041-2.041"
    ></path><path
      fill="#e6e6e6"
      d="M176.709 176.66h-59.846a2.04 2.04 0 0 0-2.041 2.041v2.7a2.04 2.04 0 0 0 2.041 2.041h59.846a2.04 2.04 0 0 0 2.041-2.041v-2.7a2.04 2.04 0 0 0-2.041-2.041M176.709 190.223h-59.846a2.04 2.04 0 0 0-2.041 2.041v2.699a2.04 2.04 0 0 0 2.041 2.041h59.846a2.04 2.04 0 0 0 2.041-2.041v-2.699a2.04 2.04 0 0 0-2.041-2.041"
    ></path><path
      fill="#3f3d56"
      d="m181.782 235.643.136.428.007.014 4.08 12.405 4.694 14.295 8.831 26.864.085 4.173v.014l.657 33.569-1.819 4.551 2.047 7.462s-.942-11.279-5.992-4.802c-2.861 3.681-6.206 7.447-8.952 10.978a167 167 0 0 0 14.887 5.222l.578.171a166.8 166.8 0 0 0 42.114 6.769q1.115.031 2.176.05c.25.007.492.014.735.014.798.008 1.59.015 2.389.015q2.418 0 4.815-.072a167 167 0 0 0 35.074-4.743c-.078-4.744-.292-10.286-.599-16.207-.143-2.903-3.345-6.049-3.538-9.088-.136-2.282 2.739-4.429 2.589-6.748-.97-14.273-2.182-8.794-3.081-18.902q-.14-1.487-.257-2.846c-.578-6.491-.977-10.55-.977-10.55l3.837-24.189 6.028-37.977-.464-.764-.52-.256-31.793-15.736-1.726-4.423a6.87 6.87 0 0 0-6.342-4.344l-20.943-.086a6.84 6.84 0 0 0-5.571 2.832l-5.671 7.854z"
    ></path><path
      fill="#3f3d56"
      d="m204.359 283.671-4.744 10.15-3.238 6.934-5.571 29.168-2.789 2.96-2.39-10.48-25.011 5.553c-.82-4.558-.219.155-.726-4.846q.216-.213.443-.428c.399-.371.734-.72.727-1.055-.285-17.249.571-46.602 7.718-64.385a37.6 37.6 0 0 1 4.394-8.196q.213-.289.414-.578c3.296-4.615 5.379-9.159 8.332-12.39v-.008a.3.3 0 0 0 .05-.049.1.1 0 0 0 .028-.022l20.287-10.757.87 24.453.621 17.576zM277.51 286.554l5.925 12.678 2.068 4.415 5.57 29.166 2.78 2.953 2.395-10.477 1.125-.231 20.297-4.204 5.915 18.788a11.243 11.243 0 0 0-2.039-14.073c-.404-.365-.741-.721-.731-1.058.337-20.286-.904-57.33-12.11-72.576-3.56-4.838-5.695-9.657-8.802-13.024-.01-.01-.01-.019-.019-.019l-7.561-12.38-.462-.76-.519-.26z"
    ></path><path
      fill="#ffb6b6"
      d="M241.614 194.943c15.388 0 27.863-12.474 27.863-27.862s-12.475-27.862-27.863-27.862-27.862 12.474-27.862 27.862 12.474 27.862 27.862 27.862"
    ></path><path
      fill="#2f2e41"
      d="M279.274 147.62a2.35 2.35 0 0 0-1.682-.745l.419-1.163a2.206 2.206 0 0 0-2.477-2.939l-1.525.294.144-1.019a2.21 2.21 0 0 0-2.958-2.389 2.35 2.35 0 0 1-2.026-.143 2.42 2.42 0 0 1-1.201-1.632l-.531-2.564-.056-.138c-2.589-4.314-7.567-7.453-13.657-8.604-5.421-1.032-10.98-.506-16.339-.012-2.126.2-4.527.425-6.528 1.65-1.701 1.051-3.139 3.152-2.845 5.272-5.284-1.62-10.95 1.613-13.757 5.69-3.327 4.852-3.871 10.93-3.958 15.683-.238 11.242 2.082 20.441 6.878 27.344.35.5.438 1.544 1.132 1.895l-.144-.232c.775.388 1.563 1.013 1.269 1.682-.844 1.926 4.765 6.185 8.717 7.591 7.21 2.57 16.796 2.352 23.536 1.426l.238-1.594c2.432-.332 4.146-.963 4.627-1.951a56 56 0 0 0 2.208-1.976l.006-.006c.012-.013.037-.032.05-.044 3.045-2.92 3.752-4.584 4.071-7.116.306-2.483-.238-5.003-.795-7.272 11.719 1.813-4.614-12.481 6.303-15.245q.189-.058.382-.094c.319-.075.638-.15.944-.238a16.6 16.6 0 0 0 4.202-1.794c3.052-1.857 4.058-4.321 5.634-7.097a2.14 2.14 0 0 0-.281-2.52M340.159 288.537a209 209 0 0 1-.068 4.521l-.019.807a543 543 0 0 1-.294 9.648c-.006.225-.013.444-.025.669-.175 4.528-.45 9.799-.926 18.147-.881 15.42-2.419 2.119-3.964 7.528-.075.269-.156.588-.231.963a17.5 17.5 0 0 1-1.176 3.958c-.819.488-1.663.957-2.495 1.426a177 177 0 0 1-7.203 3.796 180 180 0 0 1-4.108 1.976q-.327.152-.645.293a169 169 0 0 1-21.729 8.292c-1.45.438-2.895.863-4.358 1.257a166.85 166.85 0 0 1-39.669 5.946c-1.595.05-3.202.069-4.815.069-.801 0-1.588-.006-2.389-.012-.244 0-.488-.007-.731-.013-.707-.019-1.439-.031-2.176-.05a166.8 166.8 0 0 1-42.115-6.772l-.581-.169c-.9-.275-1.795-.544-2.689-.831a167 167 0 0 1-12.2-4.39 170 170 0 0 1-9.066-3.964.2.2 0 0 1-.075-.038 84 84 0 0 1-1.883-.894 7 7 0 0 0-.256-.131 170 170 0 0 1-6.922-3.577c-1.92-4.408-4.621-5.253-6.297-9.129a16.2 16.2 0 0 1-1.05-3.59c0-.012-.007-.025-.007-.043.175 2.326-.744-4.127-.006-.025l-.019-.251c-.018-.225-.043-.5-.081-.844-2.145-20.941-2.007-44.89-2.939-64.625a419 419 0 0 0-.262-4.808 4 4 0 0 1 .15-.344 1.25 1.25 0 0 1 .106-.207l.044-.062a1 1 0 0 1 .031-.063c.056-.087.119-.181.188-.268.031-.038.056-.069.087-.101a.5.5 0 0 1 .075-.087.4.4 0 0 1 .069-.081q.036-.04.081-.088a.2.2 0 0 1 .05-.05q.075-.085.163-.156.335-.31.713-.563c.087-.056.181-.113.269-.175q.947-.566 1.982-.951c.237-.087.475-.168.731-.256.094-.025.182-.056.275-.087.138-.044.276-.088.419-.119a27 27 0 0 1 2.314-.563q.151-.027.313-.063.227-.045.462-.081l.651-.112c1.857-.294 3.964-.513 6.29-.657l.657-.038.775-.037q.33-.018.669-.025.328-.018.676-.025c.631-.019 1.282-.038 1.944-.05 1.889-.038 3.877-.025 5.966.019.969.025 1.957.05 2.97.093.069 0 .131.007.194.007.881.031 1.769.069 2.682.119q.958.045 1.926.1.91.055 1.839.118c.481.025.963.063 1.45.094.413.031.826.063 1.238.088l.563.037c.307.025.613.044.926.075.687.057 1.375.113 2.076.169.694.063 1.4.125 2.107.188a242 242 0 0 1 2.345.219c.65.068 1.3.131 1.957.2.15.012.306.025.456.043.626.063 1.265.137 1.896.204l.581.063c.495.053.983.1 1.481.159.657.075 1.326.143 1.976.231q.76.083 1.52.175c.794.094 1.601.194 2.407.3.307.038.613.075.92.119 2.301.288 4.627.607 6.99.938 3.583.506 7.223 1.057 10.887 1.651q5.506.89 11.074 1.882 1.405.252 2.82.513l1.276.244q1.087.198 2.176.406 1.088.205 2.176.419l2.595.506a610 610 0 0 1 16.852 3.583c.906.207 1.813.419 2.714.626q2.7.629 5.352 1.275c.488.113.969.232 1.451.35 1.2.301 2.401.601 3.583.907l.206.056c.869.213 1.72.432 2.57.657q3.01.788 5.922 1.595a337 337 0 0 1 10.667 3.139c1.314.406 2.608.819 3.865 1.231a238.422 238.422 0 0 1 5.771 1.983c.594.212 1.182.437 1.77.65q1.268.469 2.489.938c.25.094.494.194.737.287.157.069.307.126.457.188.294.119.594.231.882.35q.439.17.869.357c.281.112.569.231.844.35q.42.168.832.356.346.143.675.294c.444.194.888.388 1.319.588.213.1.426.194.638.294l.488.225q.103.055.206.1c.157.075.319.156.475.231.363.169.72.351 1.07.519q.705.359 1.363.707a75 75 0 0 1 1.288.707c.069.037.131.075.2.112.094.05.188.106.281.156.319.182.626.369.932.551.6.369 1.169.731 1.701 1.094.119.081.231.162.35.238.394.281.769.556 1.119.837q-.002.009.007.007c.119.087.231.181.344.269.093.087.193.162.287.25.325.281.626.55.901.825q.139.128.262.269.055.046.1.1a6 6 0 0 1 .388.431q.224.264.419.526c.063.087.131.175.188.262.075.107.15.219.212.326.056.087.107.181.157.268q.198.34.337.707.106.249.169.513.071.25.106.506"
    ></path><path
      fill="#000"
      d="M340.159 288.536a209 209 0 0 1-.068 4.521c-.007.263-.019.532-.025.807a843 843 0 0 1-.313 10.317c-.175 4.528-.45 9.799-.925 18.147-.882 15.42-2.42 2.119-3.965 7.528a439 439 0 0 0-14.019-8.241 758 758 0 0 0-2.745-1.545c-10.055-5.609-21.286-11.486-33.01-17.308-.463-.231-.932-.463-1.394-.688-26.857-13.275-56.171-26.187-79.92-34.804a370 370 0 0 0-13.075-4.484c-8.667-2.77-16.158-4.708-21.923-5.546-6.003-.875-10.149-.563-11.825 1.244a419 419 0 0 0-.194-3.664l-.075-1.144c.039-.103.089-.201.138-.3l.019-.044a1.111 1.111 0 0 1 .106-.206.6.6 0 0 1 .075-.126c.056-.087.119-.181.188-.268q.075-.1.162-.188a.4.4 0 0 1 .069-.081q.036-.04.081-.088a.2.2 0 0 1 .05-.05q.075-.086.163-.156a6 6 0 0 1 .713-.563c.087-.056.181-.113.269-.175q.947-.566 1.982-.95c.237-.088.475-.169.731-.257.094-.025.182-.056.276-.087.137-.044.275-.088.418-.119a27 27 0 0 1 2.314-.563c.25-.05.513-.1.775-.144l.651-.112c1.857-.294 3.964-.513 6.29-.657l.657-.037.775-.038q.33-.017.669-.025.328-.017.676-.025c.631-.019 1.282-.038 1.944-.05 1.889-.031 3.877-.019 5.966.025q1.452.028 2.97.094c.062 0 .131.006.194.006.881.025 1.776.069 2.682.113q.958.045 1.926.1.91.055 1.839.118c.481.025.963.063 1.45.094q.62.05 1.238.088l1.489.112c.687.057 1.375.113 2.076.169.694.063 1.4.125 2.107.188a242 242 0 0 1 2.345.219c.65.068 1.3.131 1.957.2q5.459.553 11.237 1.294 3.451.441 6.99.944a594 594 0 0 1 10.887 1.645q5.506.89 11.074 1.882a567 567 0 0 1 6.272 1.163q1.088.205 2.176.419l2.595.507a606 606 0 0 1 16.852 3.582c.907.207 1.813.419 2.714.626q2.7.628 5.352 1.275c.488.119.969.238 1.451.357q1.81.45 3.583.9v.007q.103.02.206.05 1.295.326 2.57.662 3.01.788 5.922 1.589c1.288.362 2.564.719 3.82 1.081a457 457 0 0 1 6.847 2.058q1.97.618 3.865 1.231a238.422 238.422 0 0 1 5.771 1.983c.601.212 1.188.431 1.77.644.85.312 1.676.625 2.489.944.25.094.494.194.738.288q.683.264 1.338.537.439.17.869.357c.281.112.569.231.844.35q.42.169.832.356.346.143.675.294c.444.194.888.388 1.319.588.213.1.426.194.638.294l.488.225q.103.055.206.1.796.375 1.545.75.705.359 1.363.707c.519.275 1.013.544 1.488.819.094.05.188.106.282.157.318.181.625.368.931.55.601.369 1.17.731 1.701 1.094.525.363 1.013.719 1.47 1.076q-.001.007.006.006.33.264.631.519c.325.281.626.55.901.825q.139.128.262.269.055.046.1.1.2.216.388.432.224.263.419.525c.063.087.131.175.188.262.075.107.15.219.212.326.057.087.107.181.157.269q.198.338.337.706.103.25.169.513.071.25.106.506"
      opacity=".2"></path></g
  >
  <defs>
    <linearGradient id="brandGradientLight" gradientUnits="objectBoundingBox">
      <stop offset="0%" stop-color="#3563CB"></stop>
      <stop offset="100%" stop-color="#A242BF"></stop>
    </linearGradient>

    <linearGradient id="brandGradientDark" gradientUnits="objectBoundingBox">
      <stop offset="0%" stop-color="#FF67A7"></stop>
      <stop offset="100%" stop-color="#FC8E50"></stop>
    </linearGradient>
  </defs>
  <style>
    @media (prefers-color-scheme: light) {
      .about-illustration {
        fill: url(#brandGradientLight);
      }
    }
    @media (prefers-color-scheme: dark) {
      .about-illustration {
        fill: url(#brandGradientDark);
      }
    }
  </style>
</svg>
