<svg width="14" height="16" fill="none" xmlns="http://www.w3.org/2000/svg">
  <path
    d="M12.923 3.962c0 1.635-2.652 2.961-5.923 2.961S1.077 5.597 1.077 3.962m11.846 0C12.923 2.326 10.271 1 7 1S1.077 2.326 1.077 3.962m11.846 0v8.077C12.923 13.674 10.271 15 7 15s-5.923-1.326-5.923-2.961V3.962m11.846 0v2.692M1.077 3.962v2.692m11.846 0v2.692c0 1.636-2.652 2.962-5.923 2.962s-5.923-1.326-5.923-2.962V6.654m11.846 0c0 1.635-2.652 2.961-5.923 2.961S1.077 8.29 1.077 6.654"
    stroke="#fff"
    stroke-linecap="round"
    stroke-linejoin="round"></path>
</svg>
