<svg
  width="24"
  height="20"
  viewBox="0 0 24 20"
  fill="none"
  class="contact-type-icon"
  xmlns="http://www.w3.org/2000/svg"
>
  <path
    d="M0 6.484v9.806a3.429 3.429 0 0 0 3.429 3.429H20.57A3.429 3.429 0 0 0 24 16.29V6.484l-10.203 6.278a3.429 3.429 0 0 1-3.594 0L0 6.484Z"
  ></path>
  <path
    d="M24 4.47v-.18A3.429 3.429 0 0 0 20.571.862H3.43A3.429 3.429 0 0 0 0 4.29v.18l11.101 6.833a1.715 1.715 0 0 0 1.797 0L24 4.47Z"
  ></path>
  <style>
    @media (prefers-color-scheme: dark) {
      .contact-type-icon path {
        fill: rgba(255, 255, 255, 1);
      }
    }

    @media (prefers-color-scheme: light) {
      .contact-type-icon path {
        fill: rgba(30, 30, 30, 1);
      }
    }
  </style>
</svg>
