<svg
  width="18"
  height="16"
  viewBox="0 0 18 16"
  fill="none"
  xmlns="http://www.w3.org/2000/svg"
>
  <path
    d="M4.154 6.923h4.308m-4.308 5.923h4.308M2 2.616h1.077c.297 0 .539.24.539.538V14.46a.538.538 0 0 1-.539.539H2a.538.538 0 0 1-.538-.539V3.154c0-.298.24-.539.538-.539Zm2.692 2.153h3.231c.298 0 .539.241.539.539v9.154a.538.538 0 0 1-.539.538h-3.23a.538.538 0 0 1-.539-.539V5.308c0-.298.241-.539.538-.539ZM9.54 1h2.153c.298 0 .539.241.539.538v12.923a.539.539 0 0 1-.539.539H9.54A.538.538 0 0 1 9 14.461V1.538C9 1.241 9.241 1 9.54 1Zm5.063 1.62-1.36.142a.697.697 0 0 0-.603.778l1.175 10.822a.703.703 0 0 0 .757.634l1.36-.143a.697.697 0 0 0 .603-.777L15.361 3.255c-.044-.39-.385-.675-.759-.636Z"
    stroke="#fff"
    stroke-linecap="round"
    stroke-linejoin="round"></path>
</svg>
