<svg
  width="24"
  height="25"
  viewBox="0 0 24 25"
  fill="none"
  xmlns="http://www.w3.org/2000/svg"
>
  <path
    d="M4 .5a4 4 0 0 0-4 4v16a4 4 0 0 0 4 4h5.413l-.005-1.806c-.005-.674-.007-1.209-.007-1.603l-.345.062a4.23 4.23 0 0 1-.828.055A6.183 6.183 0 0 1 7.19 21.1a2.254 2.254 0 0 1-1.002-.467 1.974 1.974 0 0 1-.657-.957l-.15-.36a3.984 3.984 0 0 0-.47-.793c-.215-.29-.431-.487-.65-.59l-.104-.078a1.168 1.168 0 0 1-.195-.187.84.84 0 0 1-.122-.19v-.156a.21.21 0 0 1 .062-.051c.08-.048.225-.072.434-.071l.299.048c.2.04.445.165.739.372.296.21.544.487.724.81.23.424.507.749.83.973.324.223.65.335.978.335.329 0 .613-.026.853-.078.232-.05.457-.129.672-.235.09-.694.333-1.229.731-1.603a9.97 9.97 0 0 1-1.53-.28 5.96 5.96 0 0 1-1.406-.606 4.064 4.064 0 0 1-1.202-1.044c-.319-.415-.58-.959-.785-1.633-.203-.675-.305-1.453-.305-2.336 0-1.254.393-2.323 1.18-3.206-.368-.944-.333-2.002.104-3.174.29-.094.718-.024 1.285.21.568.234.983.433 1.248.598.264.168.476.308.635.421a10.172 10.172 0 0 1 2.868-.404c.986 0 1.943.135 2.87.404l.567-.373a7.904 7.904 0 0 1 1.375-.684c.527-.208.931-.265 1.21-.172.448 1.173.488 2.231.119 3.175.787.881 1.18 1.95 1.18 3.207 0 .882-.101 1.662-.306 2.341-.204.68-.467 1.225-.791 1.635-.339.42-.749.77-1.21 1.035-.482.28-.95.482-1.405.606a9.973 9.973 0 0 1-1.53.281c.516.467.775 1.203.776 2.21V24.5H20a4 4 0 0 0 4-4v-16a4 4 0 0 0-4-4H4Z"
    fill="#1E1E1E"></path>
</svg>