<svg
  width="16"
  height="12"
  viewBox="0 0 20 14"
  fill="none"
  class="stack-type-icon"
  xmlns="http://www.w3.org/2000/svg"
>
  <path
    fill-rule="evenodd"
    clip-rule="evenodd"
    d="M6.247 2.817a.597.597 0 0 1 0 .928L2.494 7l3.753 3.255a.596.596 0 0 1 0 .928.84.84 0 0 1-1.07 0L.888 7.464a.597.597 0 0 1 0-.928l4.289-3.719a.841.841 0 0 1 1.07 0Zm7.506 0a.841.841 0 0 1 1.07 0l4.289 3.719a.597.597 0 0 1 0 .928l-4.288 3.719a.84.84 0 0 1-1.07 0 .596.596 0 0 1 0-.928L17.505 7l-3.753-3.255a.596.596 0 0 1 0-.928ZM11.39.01c.412.061.688.4.617.758L9.485 13.455c-.071.357-.463.597-.875.535-.412-.061-.688-.4-.617-.758L10.516.545c.07-.357.462-.597.874-.535Z"
  ></path>

  <style>
    @media (prefers-color-scheme: dark) {
      .stack-type-icon path {
        fill: rgba(255, 255, 255, 1);
      }
    }

    @media (prefers-color-scheme: light) {
      .stack-type-icon path {
        fill: rgba(30, 30, 30, 1);
      }
    }
  </style>
</svg>
