<svg
  width="24"
  height="25"
  viewBox="0 0 24 25"
  fill="none"
  xmlns="http://www.w3.org/2000/svg"
>
  <g clip-path="url(#a)">
    <path
      fill-rule="evenodd"
      clip-rule="evenodd"
      d="M12 .86c-6.627 0-12 5.372-12 12 0 6.627 5.373 12 12 12s12-5.373 12-12c0-6.628-5.373-12-12-12ZM4.938 5.563a10.124 10.124 0 0 0-3.092 7.295c0 5.608 4.546 10.154 10.154 10.154s10.154-4.546 10.154-10.154a10.14 10.14 0 0 0-4.217-8.238 5.538 5.538 0 0 1-1.622 1.67l-1.546 1.03.203.405a.996.996 0 0 1-1.336 1.336l-.743-.372a1.385 1.385 0 0 0-1.599.26l-.161.161c-.54.54-.54 1.417 0 1.958l.363.363c.316.317.766.46 1.207.387l1.44-.24c.397-.066.804.044 1.114.302l1.636 1.364c.395.329.566.854.442 1.353a10.708 10.708 0 0 1-2.817 4.974l-.89.89a1.385 1.385 0 0 1-1.598.259l-.188-.094a1.385 1.385 0 0 1-.765-1.239v-1.34c0-.367-.146-.72-.406-.979l-1.658-1.658a1.385 1.385 0 0 1-.26-1.598l.478-.954-2.02-2.019A7.384 7.384 0 0 1 5.15 6.833l-.211-1.27Z"
      fill="#1E1E1E"></path>
  </g>
  <defs>
    <clipPath id="a">
      <path fill="#fff" transform="translate(0 .86)" d="M0 0h24v24H0z"></path>
    </clipPath>
  </defs>
</svg>
