<svg
  width="24"
  height="25"
  viewBox="0 0 24 25"
  fill="none"
  xmlns="http://www.w3.org/2000/svg"
>
  <path
    fill-rule="evenodd"
    clip-rule="evenodd"
    d="M0 4.288A3.429 3.429 0 0 1 3.429.859h1.567c.983 0 1.84.67 2.079 1.624l1.264 5.055a2.143 2.143 0 0 1-.793 2.234L6.067 10.88c-.153.115-.187.284-.144.402a12.897 12.897 0 0 0 7.655 7.654c.117.043.286.01.401-.144l1.109-1.478a2.143 2.143 0 0 1 2.234-.793l5.055 1.263A2.143 2.143 0 0 1 24 19.864v1.567a3.429 3.429 0 0 1-3.429 3.428H18c-9.941 0-18-8.059-18-18V4.288Z"
    fill="#1E1E1E"></path>
</svg>
