<svg xmlns="http://www.w3.org/2000/svg" width="48" height="48" fill="none" viewBox="0 0 48 48">
    <path fill="#fff" d="M12.421 13.595c.171 1.166.494 2.282.949 3.33h-1.246a7.3 7.3 0 0 0-4.86 1.86 7.2 7.2 0 0 0-2.355 4.613l-.003.02c-.004.03-.026.218-.043.345-.19 1.565-1.514 12.612-1.514 15.913 0 1.324.53 2.595 1.472 3.531a5.04 5.04 0 0 0 3.551 1.463c1.495 0 2.183-.638 3.28-1.73l3.16-3.14a6.17 6.17 0 0 1 4.34-1.789h9.7a6.16 6.16 0 0 1 4.34 1.788l3.155 3.142c1.098 1.091 1.785 1.73 3.28 1.73 1.332-.001 2.61-.528 3.552-1.464a4.98 4.98 0 0 0 1.472-3.531c0-3.303-1.328-14.341-1.517-15.91-.017-.125-.035-.328-.036-.341l-.004-.023a7.2 7.2 0 0 0-2.358-4.618 7.3 7.3 0 0 0-2.887-1.586c.46-.999.803-2.061 1.004-3.174a10.6 10.6 0 0 1 4.13 2.29 10.52 10.52 0 0 1 3.434 6.724h.007l.032.299.004.029c.172 1.426 1.54 12.75 1.54 16.31 0 2.207-.88 4.328-2.45 5.889A8.4 8.4 0 0 1 39.629 48c-2.968 0-4.515-1.578-5.648-2.705l-3.156-3.141a2.8 2.8 0 0 0-1.976-.813h-9.696c-.74 0-1.45.294-1.973.813l-3.159 3.14C12.887 46.423 11.34 48 8.372 48c-2.22 0-4.35-.875-5.92-2.435A8.3 8.3 0 0 1 0 39.675c0-3.557 1.368-14.882 1.54-16.31l.004-.025c.013-.1.013-.105.036-.302a10.53 10.53 0 0 1 3.44-6.728 10.65 10.65 0 0 1 7.104-2.715z"/>
    <path fill="#fff" d="M15.07 22.475c.924 0 1.674.746 1.675 1.665v2.773h2.79c.923.001 1.673.747 1.674 1.665 0 .92-.75 1.664-1.675 1.665h-2.79v2.774c0 .919-.75 1.664-1.674 1.664a1.67 1.67 0 0 1-1.674-1.664v-2.774h-2.79a1.67 1.67 0 0 1-1.674-1.665c0-.919.75-1.665 1.674-1.665h2.79V24.14c0-.92.75-1.665 1.674-1.665M30.72 29.134c.923.001 1.673.747 1.674 1.665-.001.919-.751 1.664-1.675 1.665h-.02a1.67 1.67 0 0 1-1.674-1.665c0-.919.75-1.665 1.675-1.665zM37.417 24.693c.923 0 1.673.746 1.674 1.664 0 .92-.75 1.664-1.674 1.665h-.02a1.67 1.67 0 0 1-1.674-1.665 1.67 1.67 0 0 1 1.674-1.664zM28.257 6.73a1.68 1.68 0 0 1 2.367 0c.654.65.654 1.705 0 2.355l-3.767 3.746c-.654.65-1.714.65-2.368 0a1.66 1.66 0 0 1 0-2.354z"/>
    <path fill="#fff" fill-rule="evenodd" d="M25.673 0c6.473 0 11.721 5.218 11.721 11.654s-5.248 11.653-11.721 11.653c-6.474 0-11.721-5.217-11.721-11.653S19.199 0 25.672 0m0 3.33c-4.624 0-8.372 3.726-8.372 8.324s3.748 8.324 8.372 8.324 8.372-3.727 8.372-8.324c0-4.598-3.748-8.324-8.372-8.324" clip-rule="evenodd"/>
    <defs>
    <linearGradient id="brandGradientLight" gradientUnits="userSpaceOnUse">
      <stop style="stop-color: #3563CB;"></stop>
      <stop offset="100%" style="stop-color: #A242BF;"></stop>
    </linearGradient>
    <linearGradient id="brandGradientDark" gradientUnits="userSpaceOnUse">
      <stop offset="0%" style="stop-color: #FF67A7;"></stop>
      <stop offset="100%" style="stop-color: #FC8E50;"></stop>
    </linearGradient>
  </defs>
  <style>
    @media (prefers-color-scheme: light) {
      path {
        fill: url(#brandGradientLight);
      }
    }
    @media (prefers-color-scheme: dark) {
      path {
        fill: url(#brandGradientDark);
      }
    }
  </style>
</svg>