<svg xmlns="http://www.w3.org/2000/svg" width="44" height="48" fill="none">
  <path
    stroke="url(#a)"
    stroke-linecap="round"
    stroke-linejoin="round"
    stroke-width="4"
    d="m13.761 40.961-2.823 4.914m19.767-4.914 2.824 4.914M5.857 22.452a8.205 8.205 0 0 1-2.86-3.692 7.898 7.898 0 0 1-.334-4.597c.348-1.532-.818-10.815.334-11.921C4.15 1.136 7.57 8.253 9.16 7.924a8.765 8.765 0 0 1 4.764.342 8.45 8.45 0 0 1 3.815 2.775m4.494 7.596v8.171l5.99 5.779M38.61 22.452a8.205 8.205 0 0 0 2.86-3.692 7.897 7.897 0 0 0 .334-4.597c-.348-1.532.558-10.815-.594-11.921-1.152-1.106-4.313 6.011-5.902 5.682a8.765 8.765 0 0 0-4.765.342 8.448 8.448 0 0 0-3.815 2.775m12.45 15.767c0 9.026-7.587 16.343-16.944 16.343S5.29 35.834 5.29 26.808s7.586-16.342 16.943-16.342c9.357 0 16.943 7.316 16.943 16.342Z"
  >
  </path>
  <defs>
  <linearGradient
      id="brandGradientLight"
      gradientUnits="userSpaceOnUse"
    >
      <stop  style="stop-color: #3563CB;"></stop>
      <stop offset="100%" style="stop-color: #A242BF;"></stop>
    </linearGradient>
    <linearGradient
      id="brandGradientDark"
      gradientUnits="userSpaceOnUse"
    >
      <stop offset="0%" style="stop-color: #FF67A7;"></stop>
      <stop offset="100%" style="stop-color: #FC8E50;"></stop>
    </linearGradient>
  </defs>
  <style>
    @media (prefers-color-scheme: light) {
      path {
        stroke: url(#brandGradientLight);
      }
    }
    @media (prefers-color-scheme: dark) {
      path {
        stroke: url(#brandGradientDark);
      }
    }
  </style>
</svg>
