<svg
  width="16"
  height="16"
  viewBox="0 0 16 16"
  fill="none"
  class="stack-type-icon"
  xmlns="http://www.w3.org/2000/svg"
>
  <path
    d="M15 4.23a3.23 3.23 0 0 1-3.507 3.22c-.772-.065-1.625.051-2.118.65l-5.134 6.234a1.83 1.83 0 1 1-2.575-2.575l6.235-5.134c.598-.493.714-1.346.65-2.118a3.23 3.23 0 0 1 4.55-3.221l-2.354 2.352a2.157 2.157 0 0 0 1.615 1.615l2.352-2.352c.184.406.286.856.286 1.33Z"
    stroke-linecap="round"
    stroke-linejoin="round"></path>
  <path
    d="M2.879 13.115h.005v.006H2.88v-.006Z"
    stroke-linecap="round"
    stroke-linejoin="round"></path>

  <style>
    @media (prefers-color-scheme: dark) {
      .stack-type-icon path {
        stroke: rgba(255, 255, 255, 1);
      }
    }

    @media (prefers-color-scheme: light) {
      .stack-type-icon path {
        stroke: rgba(30, 30, 30, 1);
      }
    }
  </style>
</svg>
