<svg width="85" height="84" viewBox="0 0 85 84" fill="none" xmlns="http://www.w3.org/2000/svg">
  <g clip-path="url(#a)">
    <path d="M.351 0h84v84h-84V0Z" fill="#F5DE19"></path>
    <path
      d="M56.778 65.625a8.61 8.61 0 0 0 7.8 4.8c3.27 0 5.361-1.635 5.361-3.9 0-2.7-2.148-3.666-5.748-5.241l-1.974-.846c-5.7-2.427-9.48-5.466-9.48-11.892 0-5.919 4.5-10.428 11.56-10.428a11.67 11.67 0 0 1 11.225 6.321l-6.17 3.945A5.37 5.37 0 0 0 64.283 45a3.435 3.435 0 0 0-3.777 3.384c0 2.367 1.467 3.327 4.854 4.8l1.974.846c6.708 2.877 10.5 5.808 10.5 12.399 0 7.107-5.583 11.001-13.08 11.001a15.18 15.18 0 0 1-14.385-8.073l6.408-3.732Zm-27.885.684c1.24 2.199 2.367 4.059 5.08 4.059 2.591 0 4.23-1.014 4.23-4.959V38.568h7.892v26.946c0 8.172-4.8 11.892-11.787 11.892a12.255 12.255 0 0 1-11.84-7.2l6.425-3.897Z"
      fill="#000"
    >
    </path>
  </g>
  <defs>
    <clipPath id="a">
      <rect x=".351" width="84" height="84" rx="2" fill="#fff"></rect>
    </clipPath>
  </defs>
</svg>
