<svg xmlns="http://www.w3.org/2000/svg" width="41" height="24" fill="none" viewBox="0 0 41 24"><g clip-path="url(#a)"><mask id="b" width="41" height="24" x="0" y="0" maskUnits="userSpaceOnUse" style="mask-type:luminance"><path fill="#fff" d="M.124.15h40.73v23.73H.124z"/></mask><g mask="url(#b)"><path fill="#34a853" d="m40.737 22.982-.04-.248a20.4 20.4 0 0 0-3.521-8.52 20.5 20.5 0 0 0-2.245-2.645 20.5 20.5 0 0 0-3.614-2.865l.023-.04 1.233-2.13 1.206-2.079.865-1.494a1.9 1.9 0 0 0 .24-1.153A1.88 1.88 0 0 0 33.983.41a1.9 1.9 0 0 0-1.437-.2 1.87 1.87 0 0 0-1.139.87l-.865 1.494-1.206 2.08q-.617 1.064-1.233 2.13l-.135.232q-.093-.037-.187-.073a20.4 20.4 0 0 0-7.503-1.336 20.4 20.4 0 0 0-7.23 1.394l-1.36-2.346-1.205-2.08-.865-1.494A1.87 1.87 0 0 0 7.04.412a1.876 1.876 0 0 0-.662 2.55l.865 1.494 1.206 2.08 1.233 2.13.01.017a20.6 20.6 0 0 0-7.38 7.96A20.4 20.4 0 0 0 .121 23.88h40.73q-.048-.45-.117-.897z"/><path fill="#202124" d="M31.08 18.246c.816-.543.934-1.798.265-2.804-.668-1.006-1.871-1.382-2.686-.84-.815.543-.933 1.799-.264 2.805.668 1.006 1.87 1.382 2.686.839m-18.466-.836c.669-1.006.55-2.261-.264-2.804-.816-.543-2.018-.167-2.687.839s-.55 2.262.264 2.805c.815.542 2.018.167 2.687-.84"/></g></g><defs><clipPath id="a"><path fill="#fff" d="M0 0h41v24H0z"/></clipPath></defs></svg>