<svg width="74" height="84" viewBox="0 0 74 84" fill="none" xmlns="http://www.w3.org/2000/svg">
  <g clip-path="url(#a)">
    <path
      d="M72.246 19.369 39.42.476C38.877.136 38.129 0 37.314 0a4.82 4.82 0 0 0-2.107.476L2.586 19.436c-1.156.68-1.971 2.38-1.971 3.67v37.855c0 .748.136 1.631.68 2.379l72.582-42.136a4.814 4.814 0 0 0-1.631-1.835Z"
      fill="#9B4F96"></path>
    <path
      d="M1.09 63.272c.34.544.816 1.02 1.292 1.291l32.757 18.961c.544.34 1.291.476 2.107.476.815 0 1.563-.204 2.107-.476l32.621-18.96c1.155-.68 1.97-2.38 1.97-3.67V23.038c0-.612-.067-1.291-.407-1.903L1.09 63.272Z"
      fill="#68217A"></path>
    <path
      d="M51.79 50.223c-2.855 5.03-8.292 8.428-14.476 8.428-9.175 0-16.65-7.476-16.65-16.651s7.475-16.65 16.65-16.65c6.184 0 11.621 3.398 14.475 8.495l8.835-5.097c-4.62-8.088-13.32-13.593-23.31-13.593-14.816 0-26.845 12.03-26.845 26.845 0 14.816 12.03 26.845 26.845 26.845 9.922 0 18.621-5.437 23.242-13.457l-8.767-5.165Zm7.951-6.728.612-2.922h-2.855v-3.194h3.466l.816-4.214h3.33l-.816 4.146h2.583l.815-4.146h3.263l-.816 4.146h1.631v3.194h-2.243l-.611 2.922h2.854v3.194h-3.466l-.816 4.078h-3.33l.816-4.078h-2.583l-.815 4.078h-3.262l.815-4.078H57.5v-3.194h2.242v.068Zm3.262 0h2.583l.611-2.922h-2.582l-.612 2.922Z"
      fill="#fff"></path>
  </g>
  <defs>
    <clipPath id="a">
      <path fill="#fff" transform="translate(.615)" d="M0 0h73.33v84H0z"></path>
    </clipPath>
  </defs>
</svg>
