<svg width="1728" height="250" viewBox="0 0 1728 250" fill="none" xmlns="http://www.w3.org/2000/svg">
  <g clip-path="url(#a)" fill-opacity=".05">
    <path
      d="M-493.207 18.237c151.872-57.848 181.195 51.53 337.157 51.53 155.963 0 181.195-51.53 337.157-51.53 155.963 0 181.195 51.53 337.158 51.53 155.962 0 182.411-51.53 338.374-51.53 155.961 0 194.581 51.53 350.551 51.53 155.96 0 181.19-51.53 337.15-51.53 155.96 0 188.62 71.652 337.16 51.53 148.54-20.124 186.48-107 337.16-51.53 139.17 51.235 139.17 148.697 0 199.932-150.68 55.471-181.2-51.529-337.16-51.529-155.96 0-181.2 51.529-337.16 51.529-155.96 0-181.19-51.529-337.15-51.529-155.97 0-194.59 51.529-350.551 51.529-155.963 0-182.412-51.529-338.374-51.529-155.963 0-181.195 51.529-337.158 51.529-155.962 0-181.194-51.529-337.157-51.529-155.962 0-185.285 109.378-337.157 51.529-137.104-52.223-137.104-147.708 0-199.932Z"></path>
    <path
      d="M-92.98 33.186C47.843-24.664 75.032 84.715 219.648 84.715c144.616 0 168.013-51.53 312.628-51.53 144.616 0 168.013 51.53 312.629 51.53s169.145-51.53 313.755-51.53c144.62 0 180.43 51.53 325.04 51.53 144.62 0 168.02-51.53 312.63-51.53 144.62 0 174.9 71.653 312.63 51.53 137.74-20.124 172.92-107 312.63-51.53 129.04 51.236 129.04 148.697 0 199.932-139.71 55.471-168.01-51.528-312.63-51.528s-168.01 51.528-312.63 51.528c-144.61 0-168.01-51.528-312.63-51.528-144.61 0-180.42 51.528-325.04 51.528-144.61 0-169.139-51.528-313.755-51.528-144.616 0-168.013 51.528-312.629 51.528-144.615 0-168.012-51.528-312.628-51.528-144.616 0-171.805 109.377-312.628 51.528-127.129-52.223-127.129-147.708 0-199.931Z"></path>
  </g>
  <defs>
    <linearGradient
      id="brandGradientLight"
      x1="-596.035"
      y1="75"
      x2="2518.37"
      y2="74.9996"
      gradientUnits="userSpaceOnUse"
    >
      <stop  style="stop-color: #3563CB;"></stop>
      <stop offset="100%" style="stop-color: #A242BF;"></stop>
    </linearGradient>
    <linearGradient
      id="brandGradientDark"
      x1="-596.035"
      y1="75"
      x2="2518.37"
      y2="74.9996"
      gradientUnits="userSpaceOnUse"
    >
      <stop offset="0%" style="stop-color: #FF67A7;"></stop>
      <stop offset="100%" style="stop-color: #FC8E50;"></stop>
    </linearGradient>
  </defs>
  <style>
    @media (prefers-color-scheme: light) {
      path {
        fill: url(#brandGradientLight);
        fill-opacity: 0.08;
      }
    }
    @media (prefers-color-scheme: dark) {
      path {
        fill: url(#brandGradientDark);
      }
    }
  </style>
</svg>
