<svg width="85" height="84" viewBox="0 0 85 84" fill="none" xmlns="http://www.w3.org/2000/svg">
  <g clip-path="url(#a)">
    <path
      d="M.351 0h70.56a13.44 13.44 0 0 1 13.44 13.44v57.12A13.44 13.44 0 0 1 70.911 84h-57.12A13.44 13.44 0 0 1 .351 70.56V0Z"
      fill="#639"></path>
    <path
      d="M25.772 69.636V56.465c0-5.253 3.372-8.075 8.468-8.075 5.017-.079 8.153 3.214 7.996 8.78h-5.801c.157-2.116-.784-3.684-2.352-3.606-1.96 0-2.51 1.333-2.51 3.842v11.446c0 2.43.785 3.606 2.51 3.685 1.803 0 2.509-1.803 2.352-3.842h5.801c.314 5.723-3.292 9.095-8.389 9.016-4.939 0-8.075-2.744-8.075-8.075Zm18.581-.94h5.41c.078 2.508.862 4.076 2.587 4.076s2.352-1.02 2.352-3.371c0-1.96-.862-3.058-2.98-4.077l-2.038-.94c-3.606-1.726-5.096-3.842-5.096-8.076 0-4.704 2.98-7.997 7.84-7.997 4.861 0 7.448 3.371 7.527 8.86h-5.253c0-2.274-.47-3.842-2.195-3.842-1.568 0-2.352.784-2.352 2.744 0 1.96.705 2.744 2.587 3.528l1.882.862c3.998 1.882 5.723 4.312 5.723 8.86 0 5.409-3.058 8.388-8.075 8.388-5.018 0-7.84-3.45-7.919-9.016Zm17.718 0h5.489c0 2.508.862 4.076 2.508 4.076 1.647 0 2.352-1.02 2.352-3.371 0-1.96-.784-3.058-2.979-4.077l-2.038-.94c-3.607-1.726-5.018-3.842-5.018-8.076 0-4.704 2.9-7.997 7.84-7.997 4.94 0 7.37 3.371 7.526 8.86H72.5c-.079-2.274-.55-3.842-2.274-3.842-1.568 0-2.273.784-2.273 2.744 0 1.96.627 2.744 2.508 3.528l1.96.862c3.92 1.882 5.645 4.312 5.645 8.86 0 5.409-3.058 8.388-8.075 8.388-5.018 0-7.84-3.45-7.918-9.016Z"
      fill="#fff"></path>
  </g>
  <defs>
    <clipPath id="a"
      ><path fill="#fff" transform="translate(.351)" d="M0 0h84v84H0z"></path>
    </clipPath>
  </defs>
</svg>
