<svg
  width="130"
  height="84"
  viewBox="0 0 130 84"
  fill="none"
  xmlns="http://www.w3.org/2000/svg"
>
  <g clip-path="url(#a)">
    <path
      d="M67.452 26.533h13.264v13.56h6.707a29.22 29.22 0 0 0 9.22-1.544 23.205 23.205 0 0 0 4.48-2.022 16.693 16.693 0 0 1-3.108-8.575 18.087 18.087 0 0 1 3.247-12.768l1.391-1.614 1.66 1.336a21.142 21.142 0 0 1 8.325 13.412 20.313 20.313 0 0 1 15.393 1.433l1.823 1.049-.96 1.855a19.205 19.205 0 0 1-19.28 9.197C98.113 70.458 73.11 84 42.788 84c-15.666 0-30.034-5.858-38.22-19.752l-.134-.228-1.17-2.407A38.494 38.494 0 0 1 .21 42.097l.185-2.008h11.34V26.533h13.268V13.255h26.533V0h15.917v26.533Z"
      fill="#0096E6"></path>
    <path
      d="M46.424 81.741a27.92 27.92 0 0 1-14.562-14.326 47.77 47.77 0 0 1-10.5 1.591c-1.546.087-3.162.13-4.847.13-1.954 0-4.012-.057-6.173-.172a41.971 41.971 0 0 0 32.465 12.842c1.212 0 2.418-.021 3.617-.065Zm-22.846-52.04h.928v9.586h-.928V29.7Zm-.816 0v9.586h-.946V29.7h.946Zm-2.671 0h.927v9.586h-.927V29.7Zm-1.744 0h.928v9.586h-.928V29.7Zm-1.744 0h.928v9.586h-.928V29.7Zm-1.707 0h.928v9.586h-.928V29.7Zm-.964-.956h11.51v11.497h-11.51V28.745Zm13.26-13.269h11.501v11.498H27.21l-.019-11.498Zm9.632.96h.928v9.582h-.928v-9.582Zm-1.744 0h.928v9.582h-.928v-9.582Zm-1.744 0h.928v9.582h-.928v-9.582Zm-1.743 0h.927v9.582h-.927v-9.582Zm-1.744 0h.927v9.582h-.927v-9.582Zm-1.707 0h.928v9.582h-.928v-9.582Zm-.96 12.305h11.502v11.501H27.21V28.745l-.028-.005Zm9.633.96h.927v9.586h-.927V29.7Zm-1.744 0h.928v9.586h-.928V29.7Zm-1.744 0h.928v9.586h-.928V29.7Zm-1.744 0h.928v9.586h-.928V29.7Zm-1.743 0h.927v9.586h-.927V29.7Zm-1.707 0h.927v9.586h-.927V29.7Zm12.309-.96h11.52v11.501H40.46V28.745l-.018-.005Zm9.628.96h.964v9.586h-.927L50.07 29.7Zm-1.744 0h.927v9.586h-.927V29.7Zm-1.744 0h.928v9.586h-.928V29.7Zm-1.744 0h.928v9.586h-.928V29.7Zm-1.744 0h.928v9.586h-.928V29.7Zm-1.706 0h.927v9.586h-.927V29.7Zm-.956-14.225h11.53v11.498H40.46V15.476h-.028Zm9.628.96h.974v9.582h-.927l-.047-9.582Zm-1.743 0h.927v9.582h-.927v-9.582Zm-1.744 0h.927v9.582h-.927v-9.582Zm-1.744 0h.928v9.582h-.928v-9.582Zm-1.744 0h.928v9.582h-.928v-9.582Zm-1.707 0h.928v9.582h-.928v-9.582Zm12.31 12.305h11.496v11.501H53.682l.005-11.501Zm9.627.96h.928v9.586h-.928V29.7Zm-1.744 0h.928v9.586h-.928V29.7Zm-1.743 0h.927v9.586h-.927V29.7Zm-1.744 0h.927v9.586h-.927V29.7Zm-1.744 0h.927v9.586h-.927V29.7Zm-.816 0v9.586h-.928V29.7h.928Zm-1.846-14.225h11.497v11.498H53.673l.005-11.498Zm9.628.96h.928v9.582h-.928v-9.582Zm-1.744 0h.928v9.582h-.928v-9.582Zm-1.744 0h.928v9.582h-.928v-9.582Zm-1.743 0h.927v9.582h-.928v-9.582Zm-1.744 0h.927v9.582h-.927v-9.582Zm-.817 0v9.582h-.927v-9.582h.927ZM53.67 2.212h11.497V13.72H53.664l.005-11.507Zm9.628.956h.927v9.581h-.927V3.168Zm-1.744 0h.927v9.581h-.927V3.168Zm-1.744 0h.928v9.581h-.928V3.168Zm-1.744 0h.928v9.581h-.928V3.168Zm-1.744 0h.928v9.581h-.928V3.168Zm-.816 0v9.581h-.927V3.168h.927ZM66.923 28.74h11.498v11.501H66.919l.004-11.501Zm10.533.96v9.586h-.928V29.7h.928Zm-2.648 0h.955v9.586h-.955V29.7Zm-1.744 0h.928v9.586h-.928V29.7Zm-1.744 0h.928v9.586h-.928V29.7Zm-.816 0v9.586h-.95V29.7h.95Zm-2.634 0h.927v9.586h-.9V29.7h-.027ZM37.993 58.88a3.173 3.173 0 1 1 0 6.346 3.173 3.173 0 0 1 0-6.345Zm0 .9c.28.001.559.053.82.153a.93.93 0 0 0-.188 1.469.928.928 0 0 0 1.464-.221 2.273 2.273 0 1 1-2.1-1.391l.004-.01Z"
      fill="#fff"></path>
  </g>
  <defs>
    <clipPath id="a">
      <path fill="#fff" d="M0 0h129.854v84H0z"></path>
    </clipPath>
  </defs>
</svg>
