<svg width="85" height="84" viewBox="0 0 85 84" fill="none" xmlns="http://www.w3.org/2000/svg">
  <g clip-path="url(#a)">
    <path d="M.351 0h84v84h-84V0Z" fill="#512BD4"></path><path
      d="M15.322 53.666a2.116 2.116 0 0 1-1.514-.593c-.415-.406-.623-.888-.624-1.447 0-.568.208-1.055.624-1.46.416-.407.92-.61 1.514-.61.604 0 1.114.203 1.53.61.425.405.638.892.638 1.46 0 .559-.212 1.04-.638 1.447-.416.396-.926.593-1.53.593Zm23.744-.334h-3.86L25.034 37.285a7.22 7.22 0 0 1-.638-1.263h-.09l.016.1.014.114.013.13.013.142.016.242.014.273.011.305.01.337.006.37.003.264.003.722v14.31H21.01V31.5h4.113l9.83 15.666.243.383.156.252.134.222.112.191.062.11.053.098.042.084h.06l-.012-.07-.021-.147-.02-.162-.017-.176-.008-.093-.015-.198-.013-.211-.012-.227-.013-.365-.01-.398-.006-.43-.002-.462V31.5h3.4v21.832Zm16.631 0H43.744V31.5h11.478v3.075h-7.944v6.181h7.32v3.06h-7.32v6.456h8.42v3.06Zm16.988-18.756h-6.118v18.756h-3.534V34.576H56.93V31.5h15.754v3.076Z"
      fill="#fff"></path>
  </g>
  <defs>
    <clipPath id="a">
      <path
        d="M.351 4a4 4 0 0 1 4-4h76a4 4 0 0 1 4 4v76a4 4 0 0 1-4 4h-76a4 4 0 0 1-4-4V4Z"
        fill="#fff"></path>
    </clipPath>
  </defs>
</svg>
