<svg width="85" height="84" viewBox="0 0 85 84" fill="none" xmlns="http://www.w3.org/2000/svg">
  <g clip-path="url(#a)">
    <path d="M84.351 0h-84v84h84V0Z" fill="#E14E1D"></path>
    <path
      d="m16.101 12.469 2.825 31.694h36.327l-1.219 13.595-11.696 3.162-11.675-3.158-.78-8.729h-10.52l1.504 16.827 21.468 5.963 21.496-5.963 2.882-32.176h-38.2l-.96-10.733h40.11l.938-10.482h-52.5Z"
      fill="#fff"></path>
    <path
      d="M42.351 12.469h-26.25l2.825 31.694h23.425v-10.48H28.512l-.959-10.732h14.798V12.469Zm0 48.446-.013.005-11.675-3.158-.78-8.729h-10.52l1.504 16.827 21.468 5.963.016-.005V60.915Z"
      fill="#EBEBEB"></path>
  </g>
  <defs>
    <clipPath id="a"
      ><rect x=".351" width="84" height="84" rx="2" fill="#fff"></rect>
    </clipPath>
  </defs>
</svg>
