<svg
  class="sample-class"
  width="87"
  height="84"
  viewBox="0 0 87 84"
  fill="none"
  xmlns="http://www.w3.org/2000/svg"
>
  <g clip-path="url(#a)">
    <path
      fill-rule="evenodd"
      clip-rule="evenodd"
      d="M79.853 64.97c-4.682-.13-8.314.35-11.359 1.631-.876.352-2.283.352-2.399 1.455.469.463.525 1.221.936 1.863.702 1.165 1.933 2.733 3.044 3.547l3.747 2.678c2.284 1.395 4.86 2.21 7.084 3.607 1.289.815 2.576 1.862 3.865 2.736.656.466 1.053 1.224 1.874 1.513v-.176c-.41-.522-.528-1.278-.936-1.862l-1.758-1.687c-1.697-2.269-3.806-4.249-6.09-5.877-1.874-1.28-5.97-3.025-6.732-5.177l-.115-.13c1.286-.13 2.808-.584 4.039-.933 1.992-.522 3.806-.407 5.853-.93l2.813-.815v-.522c-1.055-1.047-1.816-2.444-2.927-3.432-2.986-2.56-6.267-5.063-9.663-7.158-1.815-1.163-4.157-1.92-6.089-2.908-.704-.35-1.874-.524-2.283-1.106-1.057-1.278-1.64-2.967-2.402-4.48l-4.8-10.125c-1.054-2.27-1.7-4.539-2.986-6.633-6.031-9.893-12.59-15.885-22.66-21.763-2.166-1.222-4.742-1.748-7.481-2.387l-4.39-.234c-.94-.407-1.875-1.513-2.695-2.038C12.006 1.532 3.398-3.006.937 2.975c-1.58 3.782 2.343 7.506 3.675 9.427.998 1.338 2.284 2.85 2.988 4.364.394.988.525 2.037.936 3.084.936 2.56 1.815 5.412 3.044 7.8.657 1.221 1.346 2.503 2.166 3.608.468.652 1.289.931 1.463 1.978-.82 1.165-.877 2.908-1.345 4.365-2.109 6.576-1.289 14.722 1.697 19.563.938 1.454 3.15 4.656 6.15 3.433 2.634-1.048 2.047-4.364 2.808-7.274.176-.697.059-1.163.409-1.63v.13l2.401 4.83c1.815 2.85 4.978 5.819 7.612 7.799 1.404 1.047 2.517 2.852 4.273 3.491v-.176h-.115c-.353-.522-.88-.757-1.348-1.164-1.054-1.047-2.225-2.327-3.045-3.49-2.458-3.259-4.623-6.867-6.556-10.59-.938-1.804-1.759-3.783-2.517-5.587-.354-.698-.354-1.747-.938-2.094-.88 1.278-2.166 2.387-2.813 3.957-1.113 2.501-1.228 5.586-1.638 8.786-.236.059-.131 0-.236.13-1.871-.464-2.517-2.386-3.219-4.014-1.756-4.131-2.05-10.764-.528-15.536.41-1.222 2.168-5.063 1.466-6.227-.354-1.105-1.522-1.744-2.168-2.618-.76-1.106-1.578-2.502-2.106-3.724-1.404-3.26-2.106-6.866-3.63-10.125-.704-1.513-1.933-3.085-2.929-4.48-1.113-1.572-2.34-2.678-3.219-4.539-.292-.652-.702-1.687-.234-2.387.116-.465.352-.651.818-.756.76-.652 2.93.175 3.69.522 2.165.873 3.98 1.687 5.796 2.908.82.582 1.699 1.688 2.753 1.98h1.23c1.875.407 3.981.13 5.735.652 3.104.991 5.914 2.444 8.433 4.017 7.67 4.83 13.995 11.696 18.268 19.901.702 1.339.994 2.56 1.64 3.957 1.231 2.853 2.753 5.761 3.98 8.556 1.231 2.735 2.402 5.53 4.158 7.799.88 1.222 4.39 1.86 5.971 2.501 1.172.522 2.985.992 4.042 1.63 1.99 1.223 3.98 2.62 5.853 3.958.935.696 3.865 2.151 4.039 3.312l.007-.031Zm-59.71-50.565a9.376 9.376 0 0 0-2.399.29v.131h.116c.468.931 1.289 1.572 1.874 2.387l1.347 2.793.116-.13c.82-.582 1.23-1.513 1.23-2.908-.35-.407-.409-.815-.701-1.222-.352-.582-1.113-.874-1.583-1.338v-.003Z"
    ></path>
  </g>
  <style>
    @media (prefers-color-scheme: dark) {
      path {
        fill: rgba(255, 255, 255, 1);
      }
    }

    @media (prefers-color-scheme: light) {
      path {
        fill: rgba(30, 30, 30, 1);
      }
    }
  </style>
</svg>
